<svg width="30" height="30" viewBox="0 0 30 30" fill="none" xmlns="http://www.w3.org/2000/svg">
<g clip-path="url(#clip0_1_1077)">
<path fill-rule="evenodd" clip-rule="evenodd" d="M30 15C30 23.2843 23.2843 30 15 30C6.71573 30 0 23.2843 0 15C0 6.71573 6.71573 0 15 0C23.2843 0 30 6.71573 30 15ZM6.53906 23.75H10.1672V12.0661H6.53906V23.75ZM6.25 8.35122C6.25 9.5114 7.19102 10.4724 8.35117 10.4724C9.51094 10.4724 10.4523 9.5114 10.4523 8.35122C10.4523 7.79394 10.231 7.25949 9.83692 6.86543C9.44288 6.47138 8.90844 6.25 8.35117 6.25C7.79391 6.25 7.25947 6.47138 6.86542 6.86543C6.47137 7.25949 6.25 7.79394 6.25 8.35122ZM20.1258 23.75H23.75V17.3319C23.75 14.1912 23.075 11.7732 19.4031 11.7732C17.6379 11.7732 16.4547 12.7419 15.9703 13.6599H15.9195V12.0661H12.4398V23.75H16.0641V17.9647C16.0641 16.4412 16.3531 14.9686 18.2395 14.9686C20.0984 14.9686 20.1258 16.7069 20.1258 18.0624V23.75Z" fill="#CDD0D2"/>
</g>
<defs>
<clipPath id="clip0_1_1077">
<rect width="30" height="30" fill="white"/>
</clipPath>
</defs>
</svg>
