<svg width="440" height="600" viewBox="0 0 440 600" fill="none" xmlns="http://www.w3.org/2000/svg">
<g opacity="0.5" clip-path="url(#clip0_1_2629)">
<path d="M419.499 180.571C420.717 180.94 420.459 178.797 419.451 179.093C418.999 179.225 417.993 180.728 417.667 178.902L418.331 179.069C418.657 177.563 416.849 178.575 417.364 176.85C417.594 176.078 418.901 176.728 418.445 175.935C418.432 175.911 417.847 175.851 418.163 175.566C418.282 175.458 418.841 175.848 418.668 175.066C418.397 175.215 417.889 174.898 417.834 174.898V174.23C417.604 174.018 417.201 174.703 417.166 173.729L417.841 173.469C417.715 173.107 417.587 172.283 417.166 172.394C417.159 172.339 417.177 172.28 417.166 172.227C417.402 170.899 418.192 172.353 418.595 171.556C418.758 171.232 418.264 171.014 418.32 170.652C418.334 170.558 419.262 170.346 418.682 169.622C417.993 168.767 416.452 170.172 416.163 169.89C416.128 169.281 416.077 168.158 416.783 167.922C417.217 167.776 417.896 168.057 418.003 167.292C418.114 166.507 417.586 166.586 417.259 166.207C416.737 165.605 417.315 165.415 417.339 164.952C417.356 164.577 416.991 164.371 417.023 164.162C417.075 163.811 417.791 163.408 417.471 162.493C417.172 161.637 416.188 162.434 415.993 162.308C415.83 162.204 415.618 161.598 415.329 161.463C415.263 161.324 416.262 161.557 415.924 160.534C415.552 159.411 414.137 160.186 413.994 160.041C413.935 159.981 414.186 158.444 414.237 158.368C414.474 158.006 415.277 158.351 415.176 157.624C415.121 157.214 414.711 157.304 414.662 157.123C414.638 157.033 415.587 155.906 415.145 155.388C415.062 155.291 413.901 155.311 413.994 154.79C414.088 154.275 415.062 155.057 415.417 154.373C415.792 153.649 414.328 153.746 415.33 153.034L415.497 152.366C415.098 151.715 415.007 150.989 413.995 151.197C414.033 151.04 414.138 150.418 414.18 150.383C414.301 150.286 415.317 150.581 415.143 149.799C415.06 149.426 413.94 149.378 413.738 148.856C413.637 148.592 413.864 148.321 413.798 147.99C413.745 147.736 413.273 147.256 413.335 146.953C413.401 146.647 414.138 146.7 414.451 146.564C415.526 146.101 414.817 144.355 413.359 144.967C413.102 145.075 413.265 145.381 412.935 145.335C412.344 145.259 412.435 144.431 412.069 144.351C411.624 144.257 411.707 145.134 411.321 145.186C411.366 144.689 411.53 144.295 411.491 143.77C411.46 143.322 410.953 142.288 410.997 142.107C411.046 141.909 411.454 141.909 411.494 141.739C411.762 140.625 410.319 141.234 410.054 140.856C409.829 140.532 410.173 139.667 409.821 139.42C409.578 139.249 408.51 139.214 408.145 139.176C407.999 139.037 408.531 138.014 408.694 137.893C408.889 137.75 409.38 137.765 409.455 137.65C409.532 137.535 409.459 137.097 409.557 136.836C409.709 136.426 410.329 135.57 410.071 135.173C409.939 134.968 409.376 134.864 409.337 134.388C409.306 133.977 409.942 134.186 409.646 133L409.145 132.332C408.954 132.29 408.686 132.363 408.477 132.332C408.415 131.925 408.742 131.706 408.811 131.33C409.812 130.955 410.459 130.19 408.978 129.828C408.933 129.497 408.005 128.701 409.312 128.659C409.235 128.273 409.628 127.512 409.645 127.157C409.663 126.771 409.412 126.389 409.478 125.988C409.645 125.978 409.811 125.999 409.979 125.988C410.146 125.978 410.382 126.079 410.497 125.891C410.618 125.69 411.123 124.312 410.813 124.152V123.985C410.879 123.94 410.924 123.86 410.98 123.818L410.817 123.734L412.149 122.482C412.559 121.052 412.197 121.648 411.147 121.227C410.834 121.101 408.95 120.253 408.884 120.148C408.696 119.853 409.019 119.487 409.144 119.143C409.486 118.21 408.748 117.936 407.976 118.308C407.718 118.152 407.698 118.632 407.475 117.975C408.393 117.922 407.889 116.664 407.141 116.806C407.128 116.778 406.884 116.424 406.808 116.305C407.236 115.992 408.202 115.853 407.726 115.13C407.593 114.929 406.898 115.035 407.549 114.288C407.858 113.933 408.404 114.062 408.122 113.244C407.889 112.567 406.477 113.342 405.977 113.136C405.939 113.119 405.816 112.788 405.646 112.712C405.371 112.591 405.124 112.845 404.919 112.817C404.835 112.806 404.463 112.003 403.973 112.139C403.92 111.221 403.618 111.19 402.971 110.804C402.369 110.446 402.4 110.372 401.97 110.056C401.588 109.774 400.92 109.802 400.648 109.37C400.443 109.047 400.503 108.643 400.388 108.296C400.293 108.021 400.006 107.844 399.964 107.538C399.902 107.065 400.288 106.355 400.134 105.795C400.294 105.896 400.575 105.996 400.802 106.129C400.131 107.447 400.381 109.164 401.971 109.468C402.211 108.341 400.771 107.531 401.303 106.463C401.32 106.432 401.546 106.393 401.605 106.188C401.699 105.857 401.619 105.468 401.636 105.127C403.782 104.686 403.528 102.189 402.673 100.669C402.457 100.283 399.838 97.3578 399.452 97.0447C398.676 96.4078 397.053 96.5722 396.959 96.4467C396.886 96.3456 397.269 95.7612 397.098 95.4763C397.063 95.4141 395.982 94.8394 395.833 94.8122C394.88 94.6274 393.993 95.6222 393.159 95.9042C392.324 96.1861 391.191 96.1861 390.276 96.3602C388.489 96.7015 386.482 97.1498 384.687 97.2849C384.211 97.3199 381.498 97.3024 381.268 97.1984C381.021 97.0836 380.896 96.6276 380.521 96.6179C380.229 96.6111 379.043 97.3131 378.472 97.4104C377.338 97.6048 375.157 97.6466 374.041 97.4104C373.37 97.2713 373.036 96.5099 372.25 97.3617C371.794 97.8557 372.003 98.5334 371.155 98.6064C370.101 98.6968 368.662 97.4522 367.5 97.4444C367.204 97.4444 365.893 97.7954 365.674 97.9588C365.288 98.2505 365.506 98.797 365.138 98.9253C364.672 99.0887 363.131 98.9078 362.481 98.9389C358.586 99.1266 355.884 98.5004 352.117 97.9656C350.897 97.7915 347.182 97.74 346.305 97.0992C345.909 96.8104 346.104 96.3514 346.038 96.2814C345.749 95.9926 342.518 96.3019 341.872 96.1074V96.9417C342.125 96.966 342.613 96.5206 342.54 97.0214C342.491 97.3627 342.195 98.197 342.056 98.548C341.986 98.7182 342.147 98.8329 341.792 98.7775C341.531 98.1659 340.182 97.9986 340.053 97.494C339.921 96.9718 340.715 96.7841 340.711 96.3563C340.711 96.0568 340.287 95.8487 340.168 95.5599C339.991 95.1321 339.977 94.4155 339.778 94.1131C339.399 93.5326 338.088 93.0143 337.615 92.6039C337.145 92.1975 335.765 90.1205 335.146 90.281C334.489 90.4482 334.385 92.5903 334.183 92.7537C333.522 93.2895 332.531 91.0005 332.11 90.6009C331.3 89.8356 329.595 89.6859 328.608 88.9284C328.444 88.803 326.754 86.936 326.615 86.7474C326.125 86.0833 325.826 85.2801 324.849 84.8415C324.706 84.7793 323.448 84.5839 323.273 84.5946C322.745 84.6257 322.557 85.1235 322.23 85.2207C321.364 85.4784 320.634 84.8522 320.293 84.9427C320.036 85.0088 319.64 85.7565 319.351 86.0171C319 86.337 318.36 86.5558 318.008 87.0916C317.08 84.4973 316.541 81.5024 315.536 78.9636C313.126 72.8843 309.318 66.8848 306.856 60.7677C302.495 55.6102 298.653 49.0331 294.135 44.1091C293.001 42.8713 291.554 41.9426 290.299 40.8507C289.972 40.5658 289.628 40.3042 289.297 40.0164C285.632 36.827 281.966 33.4325 278.113 30.5008C277.365 29.93 275.776 28.4316 274.864 28.3198C274.374 28.2605 272.249 28.5736 271.763 28.7408C271.095 28.9703 270.775 29.9164 270.601 30C270.504 30.0448 270.153 29.9446 270.1 30C270.01 30.1041 270.336 32.1392 270.267 32.7509C270.191 33.415 269.809 33.8603 269.767 34.504C268.216 34.963 266.352 35.3179 264.759 35.5056C264.638 36.5246 264.92 36.0102 265.479 36.2008C265.67 36.2669 265.774 36.5314 265.927 36.6705C265.91 36.8309 265.955 37.0186 265.927 37.1712C266.355 37.1294 266.285 37.425 266.428 37.5048C266.97 37.8111 267.405 37.7722 267.429 38.5063C267.37 38.6415 267.359 38.9273 267.262 39.1743C266.64 38.903 265.718 39.1364 265.189 39.0178C264.991 38.973 265.123 38.7776 265.092 38.6735C265.495 38.3984 265.84 37.6545 265.926 37.1712C265.213 37.2374 265.143 37.9919 264.925 38.5063C264.838 38.7047 264.612 39.4553 264.567 39.4874C264.296 39.6644 263.127 39.3309 262.748 39.5885C262.688 39.6265 262.247 40.6494 262.163 40.8478C262.066 41.0908 262.128 41.4146 262.086 41.5158H262.42C262.601 41.1647 262.865 40.8478 263.011 40.5142C263.098 40.3198 263.06 39.888 263.095 39.853C263.143 39.8005 264.57 39.6965 264.42 40.0893L261.753 47.8585C261.231 48.2241 260.609 48.8358 260.084 49.1936C258.821 50.0561 257.5 50.7931 256.244 51.6974C256.178 51.746 256.143 51.9755 256.077 52.031C256.052 52.0514 255.649 52.3197 255.576 52.3645C255.252 52.5658 254.251 52.5833 254.241 53.366C254.213 53.3378 254.113 53.3942 254.074 53.366C253.75 53.1433 253.758 52.9868 253.573 53.1988C253.191 53.6441 252.665 53.9329 252.161 54.211C251.542 54.5523 251.195 54.7711 250.569 55.2018C250.141 54.6525 249.682 53.4701 249.234 53.0315C249.164 52.9615 248.993 52.9304 248.9 52.8643C248.816 52.9197 248.545 52.9265 248.347 53.0558C244.417 55.5947 239.277 59.5211 235.264 61.5174C234.419 61.9384 233.316 62.2233 232.374 62.2165L232.054 72.0802C232.837 72.2718 234.586 70.7237 234.965 70.7208C235.226 70.7208 236.231 72.2445 236.377 72.5644C236.481 72.7832 236.558 72.9816 236.544 73.2324C235.761 73.3404 235.153 74.2136 234.42 74.3623C233.703 74.5082 232.486 74.0424 232.705 74.901C231.968 74.9458 232.139 73.9967 231.707 73.7322C231.86 75.2346 229.854 74.6677 228.778 74.727C227.526 74.7931 226.424 74.9458 225.117 74.901C224.397 74.8767 224.199 74.3409 223.861 75.2345C223.837 75.3007 223.753 75.3561 223.694 75.4018C223.566 75.0819 223.465 74.727 223.357 74.4003C222.901 74.2437 223.061 74.7066 223.026 74.7338C222.898 74.831 221.667 74.7688 221.436 75.0644C221.196 75.3707 221.189 76.4831 221.189 76.9041C220.803 76.8837 220.404 76.9323 220.021 76.9041C219.965 76.9002 219.91 76.908 219.854 76.9041C219.711 76.8934 219.481 76.7475 219.186 76.7369C218.25 76.7057 217.103 76.6707 216.181 76.7369C216.025 76.7475 215.857 76.6882 215.701 76.7544C215.489 76.9556 215.388 81.7766 215.346 82.5798C214.411 82.7986 214.199 82.6664 213.51 82.079C213.291 81.8914 212.725 81.3138 212.509 81.0775C211.838 80.3473 207.974 75.0751 207.584 75.0712C207.097 75.4504 206.662 78.5805 206.485 78.7263C206.364 78.8236 205.908 78.6845 205.832 78.7438C205.442 79.0394 206.315 79.0219 206.165 79.3243C205.863 79.9262 204.827 79.0842 204.663 79.6656C204.535 80.1285 206.329 81.2895 205.244 82.2492C204.75 82.2249 205.083 81.2759 204.962 80.8646C204.6 79.6297 203.39 81.0415 203.067 81.0872C202.337 81.1884 201.428 80.3949 201.231 79.7551C201.103 79.3409 201.262 78.806 201.008 78.4754C200.852 78.2742 200.435 78.2567 200.236 78.0787C199.892 77.7763 199.771 77.1812 199.155 77.0733C198.675 74.8544 198.988 74.9069 199.301 72.7959C199.385 72.2183 199.211 71.1477 199.482 70.6741C199.586 70.4894 199.857 70.6041 199.945 70.5283C200.053 70.4379 199.965 70.2531 199.986 70.2327C200.039 70.1734 200.101 70.1248 200.154 70.0654C200.954 69.1436 201.252 69.6065 202.163 69.3216C203.353 68.9492 201.568 67.5966 201.155 67.0608C199.959 65.5099 197.67 63.0469 196.781 61.5028C195.504 59.2945 194.176 55.2252 193.143 52.7038C191.593 48.9204 190.177 45.0698 188.619 41.2863C188.289 40.6465 187.587 41.3903 187.232 41.3631C187.138 41.3563 186.998 40.8798 186.7 40.7019C186.331 40.4831 186.001 40.5979 185.8 40.5172C185.007 40.2109 184.203 39.7315 183.296 39.6829C182.844 38.6502 182.799 39.1996 182.462 39.1821C181.877 39.1539 178.803 37.2899 178.121 36.8445C177.731 36.5907 177.339 36.2815 176.953 36.0102C176.278 35.5377 175.621 34.9951 174.95 34.5079C173.861 33.7184 173.375 33.1797 172.112 32.5048C171.997 32.4455 171.893 32.394 171.778 32.3376C170.867 31.8923 170.234 31.6521 169.274 31.3361C168.374 31.0366 167.682 30.88 166.771 30.668C166.711 30.6544 166.594 30.5358 166.437 30.5008C166.055 30.4172 165.456 30.4347 164.935 30.3336C164.32 30.2149 163.718 30.108 163.099 30C162.4 29.8785 161.441 29.3631 160.762 29.8328C160.741 29.8017 160.314 29.8532 160.345 29.332C160.254 29.2037 159.774 29.7949 159.76 29.8328C159.962 29.1648 159.092 29.1823 158.675 29.155C158.077 29.1171 157.18 28.9781 156.422 28.8312C155.612 28.6747 154.752 28.487 153.918 28.3305C153.783 28.3062 153.609 28.1982 153.417 28.1632C152.593 28.0106 151.696 27.9717 150.913 27.8297C150.743 27.7986 150.514 27.7111 150.245 27.6625C149.418 27.5127 148.576 27.3114 147.742 27.1617C138.741 25.5446 129.731 23.9412 120.7 22.4875C120.599 22.4039 120.557 22.2892 120.367 22.3203C120.161 22.2921 119.883 22.3621 119.699 22.3203C118.364 22.014 117.038 21.733 115.693 21.486C115.442 21.4413 115.108 21.5307 114.858 21.486C114.691 21.4549 114.466 21.3674 114.191 21.3187C113.857 21.2594 113.523 21.2108 113.189 21.1515C112.417 21.0163 111.634 20.7859 110.852 20.6507C110.027 20.5078 109.189 20.3269 108.348 20.3172C107.927 20.0216 106.745 19.9312 106.178 19.8164C106.028 19.7853 105.827 19.8446 105.677 19.8164C104.23 19.5315 102.79 19.2427 101.337 18.9821C101.184 18.9539 100.989 19.0103 100.836 18.9821C99.4485 18.7352 98.061 18.3773 96.6628 18.1478C96.2807 18.0856 95.884 18.0438 95.4941 17.9806C94.2078 17.7754 93.1052 17.6325 91.8217 17.4798C91.074 17.3894 90.1766 17.2747 89.4843 16.9791H88.6501C87.9724 17.1006 87.249 17.9806 86.8144 18.1478C86.5849 18.2383 86.1989 18.0817 85.8576 18.3637C85.1167 18.9753 83.9451 22.1861 83.2246 22.8259C82.7657 23.2362 81.9169 22.9718 81.0613 24.1687C80.8143 24.513 79.3082 27.5254 79.3325 27.7227C79.3393 27.785 79.5688 28.1127 79.632 28.1642C78.7345 29.7297 78.0257 31.4469 77.1283 33.0056C76.8813 33.4335 76.8152 33.6211 76.6276 34.0072C76.6237 34.0179 76.471 34.1705 76.4603 34.1744C75.2226 34.7617 74.7559 35.524 73.7894 36.512C72.3076 37.0964 70.7607 35.844 69.2828 36.0112C68.5905 36.088 68.0519 36.7415 67.6445 37.2947C67.0358 38.1154 62.6536 45.6065 62.6264 46.1151C62.6157 46.2998 62.7791 46.4768 62.7761 46.5293C62.745 47.1827 61.9905 47.6252 61.9419 48.6996C61.9069 49.496 62.4562 50.5189 62.4076 50.7659C62.2686 51.4757 60.1363 52.1428 60.7732 53.0403C60.7032 53.0335 60.4183 53.225 60.2725 53.2075V53.7083C60.7246 53.6286 61.1106 54.8314 61.1067 55.2106C61.096 56.9395 61.0338 58.0032 61.2807 59.7982C61.3119 60.0384 61.1242 60.2922 61.5209 60.2193L69.1194 52.206C69.1894 52.276 69.3596 52.3071 69.4529 52.3732C67.9264 53.9524 66.4485 55.9447 64.9463 57.5482C64.8763 57.625 64.7451 57.7426 64.6128 57.8817C64.5953 57.9021 64.4145 57.8613 64.3415 57.9371C63.9419 58.3649 61.5384 60.8027 61.4762 61.001C61.1738 61.9997 62.0362 64.2322 61.7756 65.3903C62.0644 65.4671 62.1091 65.2717 62.2764 65.1433C63.2603 64.3888 66.3834 60.6121 66.9502 60.3855C67.027 60.3544 67.1836 60.406 67.2837 60.3855C66.3756 61.3316 65.4023 62.6881 64.4456 63.7246C64.3931 63.784 64.3309 63.8326 64.2783 63.8919C63.5306 64.7096 62.5885 65.3981 61.9652 66.351L62.4456 70.5701C62.7343 70.643 62.7791 70.4486 62.9463 70.3192C64.2715 69.3002 65.203 67.5402 66.6187 66.563C66.643 66.6155 66.747 66.667 66.7859 66.7302C65.8156 67.7425 64.501 69.0357 63.6182 70.1559C63.4995 70.3056 62.9852 70.9522 63.1135 71.067C64.5321 70.6878 65.8992 71.3587 67.3323 71.3762C69.381 69.2234 71.5959 67.1921 73.4637 64.8934C73.4841 64.9216 73.7388 64.9488 73.7972 65.0607C72.6042 66.3092 71.4676 67.9749 70.292 69.2341C69.6386 69.9361 68.6226 70.6391 68.0382 71.4044C67.9099 71.5716 67.7145 71.6164 67.7913 71.9052C69.4957 71.9674 71.1477 72.3923 72.8268 72.6286C73.136 72.6733 73.3655 72.9553 73.2994 72.4059C73.838 72.5664 76.4399 72.9971 76.8531 72.8717C77.3646 72.7151 79.562 70.1695 79.9762 69.5676C80.0627 69.6619 80.2679 69.7135 80.3097 69.9011C79.878 70.3533 79.3918 71.3169 78.72 71.734L77.4715 73.4036C78.7443 73.0312 80.1453 73.7857 81.3559 73.5319C83.0214 73.1838 85.425 69.5219 86.8192 68.3949C86.8892 68.4649 87.0594 68.496 87.1527 68.5622C87.1177 68.5972 87.1177 68.8442 86.9894 68.9764C86.1931 69.8078 85.1945 70.5623 84.6491 71.5678C84.1026 71.9295 83.5572 72.1453 83.3141 72.9028C83.669 73.178 85.7623 71.5259 85.8178 70.8997C86.4575 70.5137 89.4902 68.6254 89.9219 68.5699C90.5091 68.4902 90.3983 69.1261 90.6452 69.6687C90.69 69.7698 90.6073 70.0236 90.9058 69.8982C91.0624 69.8321 93.253 67.6063 93.3016 67.443C93.4474 66.9354 92.9574 65.718 93.1625 65.0607C93.1936 65.1093 93.3813 65.1093 93.4581 65.3427C93.5242 65.5371 93.813 67.5159 93.7887 67.6306C93.7051 68.0624 91.8033 69.6619 91.4795 70.1491C91.3784 70.3017 91.2782 70.4097 91.3472 70.6148C92.1475 72.016 92.5121 74.1591 93.3541 75.4699C94.2301 76.8399 96.623 78.736 97.8335 80.2559C97.955 80.4085 98.1048 80.8675 98.3381 81.1709C98.7523 81.7027 99.2978 82.3503 99.8335 82.7607C99.816 81.7523 100.303 80.5631 100.001 79.5888C100.188 79.8494 100.407 79.8076 100.491 80.3502C100.641 81.3206 100.052 82.4962 100.418 83.4277C100.46 83.5318 100.651 83.5629 100.665 83.595C100.71 83.6961 100.821 83.8458 100.832 83.9285C100.887 84.3602 100.641 85.0866 100.505 85.5212C99.4067 89.0412 97.393 92.5466 96.3284 96.1152C96.7737 96.2017 96.6171 96.0208 96.7348 95.7816C97.955 93.2953 100.581 86.8193 101.002 84.263C101.479 84.1657 101.368 84.5304 101.336 84.8406C101.172 86.4576 97.9035 94.1442 97.044 96.0743C96.936 96.3145 96.6444 96.2173 96.6473 96.5226C96.6541 97.0234 97.92 101.388 98.1874 101.847C98.6988 102.727 100.208 103.708 100.9 104.477C102.343 106.08 101.881 110.24 102.18 112.378C102.315 113.015 102.868 113.278 103.342 113.637C104.274 114.347 105.209 114.559 105.845 115.64C106.547 116.833 106.996 119.785 107.295 121.285C107.643 123.023 108.164 124.812 108.178 126.575C106.63 133.234 103.361 139.697 103.167 146.6C103.146 147.386 103.358 148.034 103.344 148.771C103.309 150.663 102.616 152.982 102.499 154.951C102.485 155.202 102.509 155.459 102.505 155.706C102.673 155.713 102.839 155.702 103.006 155.706C104.446 155.741 105.938 155.953 107.346 156.039C107.514 156.05 107.68 156.029 107.847 156.039C109.339 156.134 110.862 156.116 112.354 156.206C112.416 156.21 112.691 156.352 113.022 156.374C114.35 156.453 115.696 156.46 117.028 156.541C117.438 156.565 117.956 156.527 118.196 156.541C119.692 156.628 121.208 156.788 122.703 156.874C122.926 156.888 123.148 156.861 123.371 156.874C124.926 156.965 126.494 157.118 128.045 157.208C128.72 157.246 129.397 157.336 130.048 157.375C131.098 157.437 132.194 157.483 133.219 157.542C133.442 157.556 133.665 157.529 133.887 157.542C135.379 157.629 136.903 157.622 138.394 157.71C138.571 157.72 138.881 157.856 139.228 157.877C140.72 157.964 142.24 157.957 143.735 158.044C143.968 158.058 144.156 158.04 144.236 158.044C145.012 158.089 145.79 158.166 146.573 158.211C146.917 158.232 147.307 158.354 147.742 158.379C148.569 158.427 149.418 158.33 150.245 158.379C150.308 158.383 150.583 158.528 150.913 158.546C151.741 158.595 152.59 158.497 153.417 158.546C153.445 158.546 153.647 158.699 153.918 158.713C154.745 158.762 155.594 158.665 156.422 158.713C156.45 158.713 156.651 158.866 156.922 158.88C157.809 158.933 158.738 158.999 159.593 159.048C159.76 159.058 159.927 159.037 160.094 159.048C160.928 159.096 161.781 159.166 162.598 159.215C162.765 159.226 162.931 159.204 163.098 159.215C163.989 159.267 164.882 159.33 165.769 159.382C165.936 159.393 166.103 159.372 166.27 159.382C167.108 159.431 167.942 159.497 168.774 159.549C169.887 159.619 170.999 159.654 172.113 159.717C172.223 159.724 172.335 159.71 172.446 159.717C173.277 159.761 174.126 159.772 174.95 159.884C175.113 159.904 176.685 159.873 176.785 159.884C176.893 159.898 177.008 159.873 177.119 159.884C177.849 159.95 178.555 160.003 179.289 160.051C179.45 160.062 179.554 160.047 179.623 160.051C179.678 160.055 179.733 160.047 179.79 160.051C180.608 160.104 181.936 160.385 182.711 160.385H185.382C186.63 160.385 188.302 160.639 189.638 160.718H189.806C189.916 160.725 190.028 160.711 190.139 160.718C195.811 161.052 201.494 161.379 207.166 161.72C208.366 161.806 210.72 161.859 211.339 161.887C211.992 161.918 212.57 162.11 213.342 162.054C213.45 162.047 213.593 162.079 213.676 162.054C213.759 162.583 214.875 163.4 215.341 163.81C222.697 170.269 230.375 176.529 237.88 182.754C237.933 182.799 237.981 182.865 238.047 182.921C238.402 183.213 238.903 183.704 239.382 184.09C239.442 184.139 239.486 184.209 239.549 184.257C239.891 184.518 239.751 184.643 240.384 184.925C240.659 185.294 240.843 185.659 241.385 185.593C241.976 186.564 241.736 186.147 242.554 186.595C242.637 186.64 242.669 186.71 242.721 186.762C242.708 186.929 242.777 186.995 242.888 187.096C244.606 188.685 246.422 190.149 248.23 191.603C248.31 191.665 248.439 191.825 248.564 191.936C248.707 192.062 248.751 192.294 249.064 192.27C249.172 192.819 250.445 193.542 250.901 193.939C254.208 196.815 257.593 199.612 260.917 202.453C261.355 202.829 261.915 203.142 262.086 203.288C262.405 203.563 262.886 203.973 263.254 204.289C263.449 204.456 263.852 204.946 264.256 205.291C265.74 206.557 267.264 207.854 268.762 209.13C268.985 209.322 269.19 209.402 269.263 209.464C272.578 212.285 275.867 215.495 279.331 218.263L280.447 218.645C280.447 218.645 282.044 219.578 283.286 219.814C283.345 219.859 283.394 219.946 283.453 219.981H286.124C288.749 219.501 290.043 218.753 292.3 217.477C293.277 216.924 294.967 216.03 295.798 215.38C296.032 215.199 296.222 215.105 295.972 214.806C296.553 214.479 297.391 214.103 297.645 213.471L297.558 214.135C300.41 212.622 303.032 210.692 305.772 208.995C306.513 208.536 307.274 208.074 307.995 207.628C308.795 207.134 309.543 206.647 310.332 206.126H310.499C310.409 206.602 310.736 206.505 311.046 206.425C311.853 206.209 312.733 205.528 313.699 205.236C319.632 203.449 327.776 202.43 334.037 201.285C334.367 201.226 334.705 201.177 335.038 201.118C335.264 201.076 335.48 200.993 335.706 200.951C336.238 200.854 336.77 200.697 337.209 200.617C337.515 200.562 337.914 200.659 338.272 200.597C340.616 200.18 342.95 199.664 345.304 199.278C345.231 199.856 345.637 200.092 345.725 200.284C345.996 200.879 346.365 201.751 346.34 202.406C346.327 202.82 345.972 203.109 345.902 203.55C345.637 205.185 346.153 205.786 347.22 206.885C348.629 208.332 350.42 209.625 351.901 210.968C351.936 210.999 351.936 211.275 352.061 211.385C353.856 212.971 354.653 213.34 357.156 213.139C358.656 213.017 358.429 212.933 360.011 213.125C361.103 213.257 362.216 213.247 363.252 213.639C363.307 214.279 363.373 215.229 363.492 215.82C363.551 216.109 363.783 216.756 364.087 216.811L364.521 216.339L366.09 215.81C366.549 215.465 366.844 215.197 367.259 214.808C367.329 214.742 367.404 214.673 367.477 214.607C368.166 214.075 369.487 213.817 369.595 212.972C369.755 212.986 369.828 212.871 369.928 212.805C371.615 211.692 373.778 209.821 375.771 209.8C376.668 209.79 378.073 210.29 378.943 210.635C379.329 210.787 380.032 211.115 380.445 211.303C381.607 211.828 382.789 212.69 384.038 213.136C384.222 213.442 384.117 215.125 384.117 215.643C384.117 216.861 383.978 217.977 383.95 219.149C383.939 219.594 383.964 220.039 383.95 220.484C383.922 221.308 383.985 222.226 383.95 222.988C383.752 227.551 383.47 232.11 383.282 236.677C383.278 236.771 383.129 237.007 383.115 237.254C383.073 238.006 383.146 238.767 383.115 239.518C383.077 239.507 382.958 239.765 382.948 239.851H384.283V239.684C387.037 238.828 389.757 237.841 392.462 236.846C392.622 236.787 392.788 236.742 392.962 236.679C393.699 236.403 394.308 236.035 394.799 235.844C401.511 233.25 408.094 230.039 414.663 226.997C415.247 226.725 416.249 226.434 416.666 225.995C416.826 225.828 416.871 225.738 416.833 225.494C417.539 225.261 417.115 225.129 417.334 224.66C417.354 224.615 417.314 224.539 417.334 224.493C417.654 223.811 418.423 222.993 418.809 222.378C418.976 222.113 419.191 221.769 419.142 221.443C418.186 219.512 417.219 217.582 416.2 215.687C416.089 215.478 415.863 215.36 415.835 215.312C415.279 214.286 414.705 213.173 414.165 212.14C414.005 211.834 414.447 211.935 413.832 211.639C413.529 210.961 413.119 210.318 412.83 209.636C412.475 208.794 412.145 207.89 411.829 207.132C411.784 207.021 411.725 206.899 411.662 206.799C411.912 206.441 411.37 205.932 411.331 205.537C411.251 204.632 411.922 204.827 412.121 204.588C412.215 204.473 412.162 204.146 412.319 204.041C412.409 203.979 413.202 203.871 413.498 203.798L413.999 203.297C413.71 203.012 413.185 201.652 413.585 201.29C414.096 200.825 414.343 201.562 413.999 200.125C413.922 199.809 413.564 199.562 414.333 199.457C414.617 198.278 414.423 198.394 413.832 197.621C413.679 197.419 413.567 197.071 413.38 196.946C413.104 196.761 411.568 196.351 411.509 196.271C411.408 196.128 411.808 194.445 411.836 194.038C411.895 193.172 411.512 192.898 411.996 192.278C412.925 191.092 413.454 191.239 413.328 189.36L412.831 186.435C412.887 186.432 412.942 186.439 412.999 186.435L413.684 190.028C413.903 190.467 412.787 191.541 412.999 191.778C413.162 191.958 414.136 190.939 414.243 190.769C414.479 190.394 414.406 190.167 414.501 189.942C414.991 190.025 415.127 189.166 415.169 188.773C415.321 188.581 415.526 188.116 415.614 188.098C416.08 187.99 417.672 188.091 418.02 187.865C418.236 187.726 418.124 187.36 418.173 187.27C418.427 186.824 418.834 186.469 419.175 186.101C419.561 186.456 420.374 186.056 420.844 185.934V182.094C420.583 181.158 419.307 181.962 419.509 180.591L419.495 180.574L419.499 180.571Z" fill="#E8EBED"/>
<path d="M364.895 283.11C364.881 282.568 364.974 281.9 364.86 281.392C364.651 280.463 363.389 279.497 363.914 278.039C364.032 277.713 364.463 277.827 364.536 277.75C364.71 277.563 364.046 274.133 363.892 273.597C363.875 272.86 363.576 270.161 363.124 269.775C362.891 269.574 362.216 269.354 361.889 269.257C361.883 268.648 361.896 268.029 361.889 267.421H359.386V266.92C360.213 265.873 360.488 263.832 360.55 262.496C360.63 260.851 360.22 260.594 359.357 259.345C359.243 259.182 358.971 259.112 358.926 259.032C358.831 258.858 358.467 257.012 358.373 256.915C358.23 256.772 357.309 257.005 357.044 257.075L357.212 258.074C356.923 257.542 357.01 257.058 356.544 257.072C355.386 257.107 355.389 257.347 355.709 258.407H355.542C355.452 258.004 355.17 257.527 355.125 257.068L354.948 256.925L330.093 258.745C327.92 259.117 325.656 259.294 323.5 259.746L332.396 255.207C333.015 254.891 334.218 254.908 334.747 254.554C335.101 254.317 335.063 253.914 335.223 253.778C335.404 253.625 336.277 253.444 336.673 253.141C337.559 252.463 337.901 251.148 337.556 250.105C337.284 249.287 334.676 245.09 334.05 244.262C333.309 243.281 332.753 242.985 331.463 243.254C330.938 243.365 327.669 245.08 327.165 245.466C325.509 246.735 322.149 253.232 321.075 255.399C319.972 257.621 319.573 258.758 322.164 260.077C321.959 260.132 321.848 260.181 321.663 260.244C319.758 260.905 318.064 262.097 316.321 262.915C315.744 263.186 315.452 263.336 314.986 263.583C311.363 265.506 306.658 266.623 302.971 268.591C301.875 268.323 300.898 268.997 299.632 268.924C299.614 268.924 299.458 268.639 299.326 268.778C299.249 268.858 299.326 269.07 299.297 269.092C299.269 269.116 298.817 269.112 298.57 269.279C298.167 269.547 297.613 270.047 297.293 270.427C296.942 270.298 295.088 270.197 294.455 270.093C293.332 269.908 291.336 269.432 290.282 269.592C289.587 269.189 288.714 269.276 287.945 269.259C288.15 267.13 288.787 265.047 289.239 262.953C289.316 262.591 289.221 262.195 289.281 261.914C289.497 260.888 289.74 259.799 289.949 258.742C290.376 256.582 290.864 254.297 291.284 252.064L291.322 251.904C291.359 251.765 291.416 251.595 291.447 251.396C291.458 251.344 291.44 251.286 291.447 251.229L291.78 250.228C291.913 250.043 291.982 250.165 292.114 249.727C292.225 249.361 292.308 247.543 292.455 247.397C292.671 247.38 292.901 247.366 293.113 247.39C293.168 247.397 293.223 247.386 293.28 247.39C293.471 247.408 293.6 247.651 294.16 247.525C294.581 247.428 294.667 247.111 294.782 247.056C294.897 247 295.001 246.952 295.116 246.889C295.505 246.679 295.603 246.617 295.95 246.388C296.27 246.179 296.729 246.113 297.046 245.73C298.214 244.315 299.302 239.345 299.957 237.373C300.023 237.172 300.179 236.876 300.29 236.539C300.482 235.961 300.603 235.238 300.791 234.703C300.972 234.181 301.563 233.225 301.792 232.532C301.893 232.553 302.046 232.504 302.126 232.532C303.378 233.002 304.111 233.298 305.465 233.534C305.485 233.538 305.5 233.694 305.548 233.697C305.652 233.669 305.614 233.6 305.632 233.534C305.646 233.485 305.625 233.423 305.632 233.367C306.115 232.723 306.161 231.649 306.3 230.863C306.359 230.532 306.512 230.212 306.467 229.861C306.937 229.149 306.947 228.171 307.135 227.358C307.159 227.256 307.111 227.121 307.135 227.024C307.806 224.141 308.47 221.205 309.138 218.344C309.18 218.159 309.371 217.781 309.472 217.342C310.345 213.583 311.283 209.836 312.145 206.073C312.11 205.569 310.696 205.559 310.139 205.489C310.031 205.475 309.913 205.5 309.805 205.489C307.928 205.284 306.014 205.117 304.13 204.988C304.019 204.981 303.907 204.995 303.796 204.988C303.049 204.94 301.571 204.362 301.793 205.656C301.463 205.677 301.807 205.242 301.397 205.336C296.977 207.677 292.55 210.028 288.108 212.333C287.85 212.466 287.687 212.625 287.607 212.667C286.07 213.463 284.634 214.273 282.934 214.67C282.662 214.732 282.095 214.792 281.765 214.837C281.615 214.858 281.48 214.998 281.431 215.005C281.209 215.036 280.829 215.025 280.597 215.005C280.489 214.994 280.368 215.022 280.264 215.005C279.805 214.932 278.393 214.458 277.926 214.253C275.564 213.22 269.483 207.642 267.246 205.655C267.045 205.474 267.295 205.478 266.746 205.155C266.708 205.13 266.631 205.175 266.578 205.155C266.384 205.078 265.702 204.866 265.657 204.838C265.306 204.616 262.794 202.383 262.739 202.15C262.686 201.931 262.833 201.569 262.704 201.35C262.669 201.29 261.716 200.505 261.654 200.48C261.323 200.345 261.372 200.8 261.407 200.981C260.721 200.251 259.578 199.642 258.903 198.978C258.684 198.762 258.455 198.365 258.235 198.144C258.204 198.113 258.215 197.869 258.079 197.723C257.877 197.504 256.493 196.384 256.291 196.353C256.163 196.332 255.857 196.415 255.731 196.474C255.791 196.265 255.968 195.828 255.877 195.667C253.551 193.89 251.339 191.963 249.058 190.13C248.678 189.824 248.282 189.811 248.056 189.63C247.82 189.438 247.58 189.076 247.222 188.795C247.121 188.716 246.777 188.643 246.554 188.462C246.446 188.375 246.074 187.915 245.72 187.628C245.459 187.416 245.132 187.162 244.885 186.96C244.332 186.504 243.752 186.048 243.216 185.625C243.073 185.51 242.896 185.276 242.715 185.124C242.503 184.943 242.305 184.748 242.047 184.623C241.689 184.217 238.635 181.548 238.271 181.5C238.055 181.472 237.847 181.674 237.547 181.542C237.294 181.431 236.493 180.491 236.205 180.45L236.465 179.779C233.276 177.25 230.223 174.555 227.107 171.943C226.791 171.676 226.231 171.439 226.026 171.272C224.197 169.739 222.256 168.017 220.35 166.431C220.099 166.222 219.846 166.065 219.682 165.93C219.415 165.708 219.098 165.467 218.848 165.262C218.758 165.189 218.66 165.05 218.515 164.929C218.272 164.727 218.018 164.375 217.68 164.094C217.562 163.993 217.398 163.969 217.347 163.927C217.013 163.649 216.679 163.36 216.345 163.093C215.904 162.738 215.75 162.418 215.177 162.091C214.429 161.667 214.564 161.785 213.674 161.758C213.149 161.74 213.094 161.264 212.673 162.259C212.666 162.091 212.68 161.925 212.673 161.758H211.672C211.609 162.217 211.811 162.648 211.839 163.093H211.505C211.495 162.592 211.512 162.087 211.505 161.591C211.189 161.549 211.084 161.566 210.837 161.758C210.778 161.802 210.688 161.841 210.67 161.925H210.002L209.835 161.758L209.668 161.424C204.447 161.233 199.207 160.899 193.98 160.59H193.812C193.701 160.583 193.59 160.597 193.479 160.59C192.383 160.524 190.916 160.256 189.89 160.256H187.219C186.513 160.256 185.275 160.138 184.465 160.089C184.354 160.082 184.242 160.096 184.131 160.089C183.408 160.047 182.57 159.968 181.794 159.922C181.683 159.915 181.571 159.929 181.46 159.922C181.349 159.915 181.237 159.929 181.127 159.922H180.959C180.838 159.915 180.49 159.776 180.125 159.755C179.294 159.706 178.46 159.636 177.622 159.587C177.511 159.581 177.399 159.594 177.288 159.587C176.289 159.528 175.285 159.479 174.284 159.42C173.501 159.375 172.729 159.299 171.946 159.253C171.779 159.242 171.613 159.264 171.445 159.253C170.555 159.2 169.665 159.138 168.775 159.086H168.607C167.717 159.033 166.827 158.971 165.936 158.918H165.769C164.931 158.87 164.104 158.8 163.265 158.751C163.155 158.744 163.043 158.758 162.932 158.751C162.041 158.699 161.152 158.636 160.261 158.584H160.094C159.311 158.539 158.539 158.462 157.756 158.417C157.589 158.406 157.423 158.427 157.256 158.417C156.418 158.368 155.586 158.298 154.752 158.249C154.421 158.229 154.081 158.27 153.751 158.249C152.429 158.173 151.066 157.992 149.745 157.916C149.577 157.905 149.411 157.927 149.244 157.916C147.859 157.836 146.454 157.829 145.071 157.749C144.848 157.735 144.625 157.762 144.403 157.749C143.071 157.672 141.613 157.495 140.23 157.415C140.007 157.402 139.784 157.429 139.562 157.415C138.122 157.332 136.661 157.164 135.221 157.082C135.11 157.075 134.999 157.088 134.888 157.082C133.448 156.998 131.984 156.998 130.547 156.914C130.38 156.904 130.214 156.925 130.047 156.914C128.659 156.835 127.15 156.664 125.706 156.581C125.539 156.57 125.373 156.592 125.206 156.581C123.77 156.497 122.305 156.33 120.865 156.247C120.698 156.237 120.532 156.258 120.365 156.247C120.142 156.234 119.919 156.261 119.697 156.247C119.421 156.23 119.14 156.265 118.862 156.247C117.993 156.199 117.078 156.137 116.191 156.08C116.163 156.08 115.962 155.927 115.691 155.913C114.943 155.875 113.994 156.083 113.353 155.746H112.685C112.282 158.459 112.195 161.463 111.638 164.13C111.245 166.012 110.237 167.823 110.181 169.768C110.167 169.813 110.035 169.872 110.013 169.935C109.94 170.165 109.934 170.492 109.846 170.77C109.443 172.074 108.994 173.489 108.688 174.703C108.368 175.962 108.58 176.591 108.511 177.614C108.463 178.355 108.08 179.256 108.014 180.038C107.928 181.033 108.07 182.118 108.014 183.124C108.014 183.103 107.844 182.939 107.84 182.72C107.823 181.747 107.938 180.748 107.764 179.784L106.675 184.372C106.789 184.602 107.12 184.41 107.27 184.299C107.826 183.9 107.43 183.263 108.01 183.287C108.063 184.529 107.371 184.326 107.096 184.793C106.911 185.106 107.058 185.576 106.793 185.913C106.526 186.251 104.835 186.988 104.349 187.388C103.563 188.039 103.121 190.112 102.836 191.134L102.578 191.458C102.488 191.604 102.55 191.857 102.501 191.969C101.427 194.449 99.8927 198.403 99.2461 200.984C98.6064 203.543 98.5607 206.538 98.1649 209.164C98.8601 208.934 102.536 206.9 102.894 207.007L105.843 210.412C107.377 210.621 108.966 210.787 110.514 210.833C111.728 210.868 112.782 210.593 114.187 210.833C114.639 210.91 118.186 211.87 118.329 212.033C118.457 212.179 118.447 213.083 118.527 213.337C119.045 214.968 120.697 216.063 120.697 217.928V221.016C119.974 221.023 119.243 221.11 118.527 221.183C115.467 221.496 111.537 221.615 108.612 222.198C107.013 222.518 105.267 224.32 103.754 225.019C103.496 225.44 103.816 226.824 103.656 227.008C103.549 227.134 100.648 227.853 100.527 228.052C100.339 228.351 100.464 230.024 100.137 230.584C99.8451 231.088 98.655 231.307 98.3322 231.863C99.6506 232.218 101.667 232.159 102.891 232.563C103.02 232.604 103.121 232.664 103.163 232.803C103.319 233.321 101.062 238.451 100.843 239.421L96.617 242.425C95.6535 242.961 94.9651 240.683 94.2456 240.544L84.647 240.377L84.3135 244.387C87.7982 244.349 91.2587 244.001 94.7356 244.06L99.1693 246.47C99.2704 246.585 99.4474 247.187 99.4999 247.392C99.6283 247.889 99.7916 248.999 99.6389 249.451C99.5621 249.673 98.1922 250.442 97.8305 250.73C97.7925 250.761 97.5242 250.633 97.4892 250.834C97.4892 251.3 97.5096 251.77 97.496 252.233C96.9953 252.448 96.2719 252.483 95.8129 252.837C95.7264 253.258 96.6024 254.82 96.8601 255.299C96.9855 255.533 96.9262 255.828 97.3297 255.738V256.239C97.3297 256.795 97.3365 257.352 97.3297 257.908V258.076C97.2325 258.096 97.0517 258.044 96.9962 258.076C96.7113 258.239 96.6384 258.719 96.2067 258.872C94.6034 259.432 91.9189 259.139 90.2601 259.936L77.6289 270.185L72.7946 269.928C72.6449 270.334 72.9794 272.122 72.8919 272.268C72.7353 272.526 70.6177 273.078 70.464 272.932C70.4329 271.6 69.3614 270.425 69.7056 269.09C69.8097 268.69 70.9259 266.975 70.7839 266.773L67.6259 265.09L66.287 268.93L63.0736 268.458C62.1032 269.435 60.7362 270.235 59.7736 271.177C59.4673 271.48 58.8314 272.551 58.6117 272.686C57.8883 273.128 55.7317 272.248 55.019 273.267L48.4501 281.902C48.315 282.417 49.6947 283.638 49.6013 284.285C49.4166 284.504 45.9912 284.587 45.4973 284.938C44.9858 285.304 43.1919 289.105 42.9061 289.272C42.1963 289.682 41.2755 287.283 40.5414 287.474C40.2838 287.544 39.5847 288.445 39.2444 288.698C36.6357 290.632 32.762 292.524 29.8024 293.943C27.813 294.9 24.5373 296.687 22.3915 296.562L14.3894 294.639L18.8717 301.086L19.0701 301.893C17.7837 312.011 16.2426 322.092 14.8863 332.199L10.5459 335.371V336.205C12.086 335.552 13.1954 333.962 14.719 333.201C14.649 333.743 14.5071 334.324 14.5518 334.87C14.0997 335.201 11.3519 336.946 11.8809 337.541C11.9995 337.674 12.5488 337.215 12.6986 337.107C13.5163 336.526 14.124 335.708 14.719 335.205C21.2218 329.668 29.7498 322.413 37.5808 319.179C45.051 316.094 53.4176 314.45 61.5344 314.832C64.0274 314.95 66.5593 315.364 69.0143 315.513C70.078 315.576 71.5044 316.268 72.6245 316.341L72.4543 316.671L73.2886 316.508L72.958 316.839L73.9595 316.738C79.5337 318.633 85.2061 320.233 90.8124 322.014L90.9796 322.181C91.07 322.209 91.2227 322.153 91.3131 322.181C99.2695 324.709 107.223 327.329 115.176 329.86C117.283 330.531 119.426 331.202 121.52 331.863C127.693 333.817 133.851 335.813 140.045 337.706C141.057 338.015 141.794 338.391 142.883 338.54C143.008 338.714 143.189 338.804 143.384 338.873C143.47 338.905 143.631 338.842 143.717 338.873C149.292 340.887 155.065 342.279 160.566 344.472C175.103 350.267 190.258 356.986 204.465 363.579C209.355 365.851 212.78 367.513 218.149 368.754C219.377 369.039 220.604 369.186 221.821 369.422C221.936 369.443 222.187 369.68 222.322 369.756H222.823C222.955 369.255 222.214 369.359 221.821 369.255C221.609 369.2 221.331 369.144 221.153 369.088C221.213 368.865 221.257 368.642 221.321 368.42C221.429 368.027 221.916 366.743 222.242 366.583C222.615 366.398 222.767 367.968 223.157 368.085C223.074 369.199 223.373 368.714 223.992 368.419C225.564 367.667 224.781 367.863 224.711 366.635C224.662 365.765 225.858 366.015 226.422 366.235C227.038 366.475 227.232 367.143 227.362 367.212C227.58 367.334 227.97 367.188 228.238 367.254C228.54 367.327 228.749 367.62 229.072 367.591C229.548 367.553 229.924 366.683 230.272 366.614C230.713 366.528 231.346 367.254 231.833 367.007C232.435 366.701 232.007 365.79 232.206 365.445C232.234 365.397 233.061 364.777 233.117 364.764C233.75 364.59 233.99 366.252 234.504 365.745C234.591 365.661 233.889 364.068 233.836 363.575L234.504 362.906C234.762 362.865 235.071 362.938 235.338 362.906C235.297 362.597 235.398 362.187 235.338 361.905C235.992 360.771 236.281 359.54 236.173 358.232C236.263 358.208 236.374 357.93 236.673 358.135C237.035 358.386 237.039 359.512 238.005 359.234C238.075 358.556 237.97 357.992 237.425 357.554C237.244 357.408 236.844 357.446 236.823 357.3C236.688 356.406 237.147 356.016 238.005 356.225C238.353 355.213 236.9 355.339 236.702 355.025C236.587 354.845 236.684 354.247 236.5 353.978C237.676 353.773 238.221 352.291 236.809 351.829C236.452 351.711 235.067 351.439 234.699 351.423C233.878 351.378 233.249 351.273 232.574 351.224C232.018 351.187 230.3 351.93 230.911 350.717C230.971 350.595 231.579 350.17 231.829 349.883C232.365 349.816 232.226 349.559 232.33 349.382C232.473 349.135 232.778 348.975 232.664 348.548C231.408 348.151 231.433 349.577 230.407 349.563C230.156 349.559 229.169 348.687 229.152 348.606C229.013 347.986 229.423 347.882 229.829 347.712C230.566 348.676 232.74 347.511 230.998 346.878C230.16 346.576 229.454 346.84 228.588 346.562C228.181 346.646 228.605 347.601 227.573 347.724C226.829 347.81 227.061 347.369 226.668 347.276C225.715 347.046 225.1 347.874 225.323 346.041C225.688 346.127 227.656 346.504 227.489 345.79C227.43 345.536 226.769 345.452 226.689 345.334C226.605 345.202 226.685 344.906 226.567 344.712C226.536 344.659 225.757 344.072 225.701 344.054C225.057 343.877 225.103 344.656 224.942 344.826C224.782 344.996 224.452 344.937 224.268 345.042C224.098 345.139 224.157 345.358 224.142 345.369C223.784 345.64 223.763 344.927 223.645 344.705C223.573 344.573 223.535 344.319 223.44 344.242C223.339 344.162 223.211 344.228 223.145 344.204C222.088 343.846 221.027 344.336 221.145 342.788C221.165 342.517 221.451 342.329 221.475 342.201C221.548 342.135 221.788 342.075 221.809 342.034C222.25 342.239 222.417 342.148 222.81 342.034C222.866 342.016 222.936 342.054 222.977 342.034C223.906 341.575 223.739 340.479 223.979 340.364C224.038 340.336 224.208 340.378 224.312 340.364C224.42 340.35 224.542 340.382 224.646 340.364C224.952 340.309 225.352 340.333 225.46 339.923C225.612 339.342 225.06 339.453 224.979 339.363C224.869 339.237 224.622 338.132 224.646 337.86C224.799 337.745 225.084 337.366 225.147 337.192C225.345 337.227 225.647 337.144 225.815 337.192C226.319 337.338 228.166 339.738 228.625 338.416C228.91 337.592 228.096 336.678 229.32 336.524C232.829 337.362 236.279 338.416 239.763 339.348C240.855 339.64 241.989 339.723 243.004 340.193C243.154 340.263 243.028 340.471 243.672 340.526C243.776 340.537 243.901 340.533 244.005 340.526C244.182 340.513 244.354 340.447 244.506 340.359C244.436 341.124 244.67 341.288 245.431 341.211C245.737 341.18 245.647 340.898 245.789 340.863C245.998 340.814 246.442 340.915 246.505 340.856C246.575 340.79 246.37 340.192 246.78 340.049C247.497 339.802 248.575 340.338 249.343 340.195L248.172 347.62C248.179 347.783 248.662 347.697 248.843 347.706L254.602 348.388C258.347 347.988 262.172 348.308 265.945 348.211C266.863 348.963 267.559 349.391 268.78 349.546C268.967 349.546 268.989 348.562 269.037 348.374C269.549 346.475 270.085 344.615 270.54 342.699C270.588 342.494 270.974 342.174 270.866 341.798C270.78 341.499 270.293 341.582 270.229 341.513C270.035 341.298 270.761 338.842 270.876 338.359C271.019 337.746 271.105 336.958 271.21 336.522C271.223 336.47 271.196 336.408 271.21 336.355C271.216 336.327 271.446 336.146 271.501 335.903C271.737 334.884 272.941 330.477 272.878 329.844H273.045L273.713 330.011C273.804 329.006 274.005 327.987 274.214 327.007C274.225 326.951 274.349 326.83 274.381 326.673C274.443 326.367 274.395 325.988 274.548 325.672C275.296 326.016 276.319 326.058 277.052 326.506C277.028 326.59 277.028 327.084 277.052 327.174C277.174 327.619 279.044 327.745 279.556 327.842C280.387 328.002 281.228 328.19 282.059 328.343C281.85 328.996 281.197 329.473 281.225 330.179C282.936 330.749 283.155 329.768 283.896 328.509C284.223 328.571 284.574 328.599 284.898 328.676C285.043 328.711 285.221 328.795 285.398 328.843C285.778 329.563 287.366 330.76 287.659 331.351C287.805 331.643 287.37 332.218 287.235 332.516C287.016 332.989 286.338 333.855 286.73 334.269C286.88 334.426 289.774 335.9 290.149 336.029C291.206 336.391 292.955 336.732 294.079 336.857C294.166 336.867 294.354 337.229 294.58 336.69L298.586 336.522C298.606 335.382 298.857 334.136 298.919 333.017C298.93 332.85 298.908 332.683 298.919 332.516C298.999 331.083 299.03 329.605 299.086 328.175C299.1 327.786 299.069 327.393 299.086 327.007C299.1 326.673 299.076 326.339 299.086 326.005V325.838C299.097 325.529 299.236 325.257 299.254 325.004C299.258 324.948 299.254 324.893 299.254 324.836C299.264 324.649 299.289 323.87 299.254 323.835L298.415 323.414L298.586 322.662L299.25 322.829C299.25 322.263 298.509 322.45 298.753 321.661C298.798 321.601 299.17 321.897 299.25 321.828C299.57 321.553 298.923 321.473 298.908 321.396C298.763 320.631 299.336 320.752 299.416 320.655C299.677 320.331 299.072 320.297 299.082 320.249C299.117 320.072 299.389 319.724 299.416 319.49C299.43 319.382 299.402 319.265 299.416 319.157C299.451 318.892 299.385 318.59 299.416 318.322C299.447 318.065 299.354 317.787 299.691 317.679C300.251 317.494 301.778 317.714 302.512 317.661C303.454 317.595 304.442 317.633 304.424 316.486H304.592C304.539 317.341 304.442 317.699 304.091 318.486C304.536 318.59 304.981 318.711 305.426 318.823C306.268 319.032 307.739 319.147 308.423 319.582C309.286 320.128 310.841 322.604 311.682 323.497C311.904 323.734 312.147 324.009 312.436 324.165C312.489 324.194 312.52 324.322 312.687 324.333C313.417 324.017 315.674 324.444 315.921 323.547C316.112 322.855 314.505 318.139 314.78 317.829C316.863 317.373 318.825 316.47 320.782 315.652C320.848 315.624 321.025 315.701 321.158 315.646C321.262 315.601 321.585 315.155 321.95 315.152C323.053 315.057 323.918 314.532 324.954 314.317C327.789 313.73 331.336 314.478 334.222 314.154C334.372 314.136 335.575 313.854 335.634 313.817C336.166 314.026 335.871 314.783 336.177 315.111C336.455 315.406 337.849 315.786 338.305 315.987C338.305 316.073 338.469 316.324 338.472 316.564C338.486 317.319 338.466 318.074 338.472 318.825H340.976C341.011 318.188 340.927 317.535 340.976 316.895C340.994 316.652 341.139 316.415 341.143 316.321C341.373 316.277 341.832 316.45 341.995 316.22C342.434 315.612 342.646 313.17 343.191 312.527C343.597 312.055 345.403 311.199 346.06 310.642C346.585 310.196 346.665 309.88 346.982 309.477C348.592 307.435 350.098 305.307 351.746 303.29C351.649 302.26 351.729 302.855 352.247 302.476C352.532 302.267 352.675 301.742 352.935 301.658C353.301 301.539 353.829 301.752 354.163 301.55C354.616 301.275 356.375 297.241 356.987 296.574C357.223 296.306 358.368 296.271 358.476 296.101C358.619 295.882 358.337 294.122 358.33 293.618C358.33 293.593 358.486 293.489 358.49 293.353C358.528 292.532 358.021 292.661 357.996 292.616C357.923 292.481 358.049 291.851 357.996 291.614C358.056 291.586 358.107 291.475 358.163 291.447C358.682 291.193 359.447 291.037 359.812 290.508C360.166 289.994 360.681 287.391 360.994 287.183C361.426 286.895 363.036 287.309 363.797 286.982C364.353 286.746 364.774 285.692 364.84 285.104H365.008V283.101H364.84L364.878 283.112L364.895 283.11ZM200.983 313.371L201.195 312.158L201.369 311.152L200.983 313.371Z" fill="#E8EBED"/>
<path d="M136.014 423.896L135.071 431.433L144.664 432.633L145.607 425.096L136.014 423.896Z" fill="#E8EBED"/>
<path d="M210.903 471.096C210.841 472.73 210.987 474.393 210.91 476.028C210.886 476.564 210.736 478.595 210.579 478.869C210.183 479.561 208.058 480.865 207.922 481.397C207.856 481.655 208.436 482.983 208.652 483.283C208.892 483.338 211.765 480.615 212.071 480.194C212.453 479.665 214.53 474.561 214.568 474C214.62 473.277 214.147 471.761 213.824 471.1H210.903V471.096Z" fill="#E8EBED"/>
<path d="M203.574 456.586C203.501 457.383 202.952 458.078 203.073 458.896L205.894 459.744C205.911 459.23 206.743 457.755 206.492 457.4C206.357 457.209 203.772 456.412 203.571 456.586H203.575H203.574Z" fill="#E8EBED"/>
<path d="M234.263 379.781C233.985 379.708 233.811 379.875 233.595 379.948C233.536 379.969 233.48 380.094 233.428 380.115C232.809 380.345 232.444 380.568 231.926 380.783C231.658 380.894 231.421 381.051 231.258 381.117C231.073 381.194 230.687 381.194 230.423 381.284C229.714 381.524 229.091 381.979 228.452 382.265C227.655 382.62 226.681 382.839 225.92 383.288C225.433 383.281 223.329 383.445 223.249 383.034C223.204 382.805 223.725 382.36 223.569 381.894C223.384 381.344 221.952 381.824 222.282 380.575C222.362 380.273 223.138 379.567 222.589 379.191C221.649 378.547 221.66 379.74 221.545 379.918C221.295 380.304 220.144 380.04 219.741 379.953C219.393 379.876 218.993 379.717 218.572 379.619C218.314 379.56 217.977 379.32 217.738 379.286C217.581 379.262 217.4 379.3 217.237 379.286L217.153 379.119L216.907 379.286C216.635 379.275 216.344 379.268 216.072 379.286C216.128 378.82 215.7 378.803 215.404 378.785C214.688 378.74 213.955 378.806 213.234 378.785C212.901 378.774 212.528 378.618 212.065 378.618C211.714 378.618 210.994 378.761 210.563 378.785C210.201 378.806 209.84 378.949 209.729 378.952C209.138 378.981 208.64 378.747 208.06 378.785C207.74 378.302 207.579 378.444 207.392 378.284C207.35 378.249 207.478 378.225 207.058 377.951C206.891 377.84 206.727 377.725 206.557 377.617C207.197 377.388 206.655 376.918 206.39 376.449C206.939 374.898 206.004 374.432 204.721 373.945C204.202 373.232 203.424 372.828 203.556 371.774L203.886 372.442C204.182 371.385 203.496 371.403 203.212 370.989C203.083 370.801 202.534 369.455 202.387 369.103C202.259 368.79 201.917 368.126 201.907 367.859C201.882 367.107 202.634 365.779 202.721 364.764C203.19 364.517 203.173 363.748 203.221 363.261C204.866 363.811 206.609 364.249 208.226 364.764C208.25 364.77 208.361 365.035 208.625 365.108C209.188 365.264 209.662 365.333 210.229 365.432C210.194 365.411 210.138 365.237 209.947 365.136C209.477 364.889 208.855 364.792 208.392 364.597C202.185 361.951 195.782 359.429 189.703 356.751C189.123 356.498 188.545 356.31 188.034 356.083C188.003 356.07 187.895 355.836 187.7 355.75C187.656 355.729 187.579 355.77 187.533 355.75C186.375 355.242 185.189 354.755 184.028 354.247C183.927 354.203 183.819 354.137 183.695 354.08C182.418 353.52 181.135 352.967 179.855 352.411C179.416 352.219 177.455 351.496 177.351 351.409C175.884 350.165 174.117 349.997 172.347 349.239C172.298 349.218 172.228 349.259 172.18 349.239C171.373 348.895 165.792 346.464 165.506 346.234C165.422 346.164 165.739 345.998 165.172 345.901C165.12 345.894 165.057 345.901 165.005 345.901C164.946 345.733 164.796 345.772 164.671 345.733C162.599 345.094 160.463 344.008 158.464 343.181C149.655 339.539 140.064 336.709 130.929 333.836C128.432 333.05 125.772 332.152 123.257 331.491C122.933 331.408 122.628 331.328 122.291 331.373C121.095 330.837 120.225 330.563 118.952 330.204C118.899 330.19 118.837 330.217 118.785 330.204C117.943 329.964 112.393 328.569 112.111 328.368C112.093 328.354 112.173 328.041 112.014 328.031C111.878 328.02 111.631 328.207 111.374 328.191C110.734 328.146 110.619 327.774 110.522 327.743C110.379 327.701 109.691 327.813 109.441 327.701C108.828 326.72 109.02 327.235 108.084 326.964C107.869 326.902 107.705 326.73 107.604 326.699C107.701 326.247 107.375 326.379 107.11 326.285C101.57 324.341 95.3492 322.202 89.7118 320.647C89.2529 320.522 88.6928 320.23 88.2514 320.522C82.8892 319.026 77.6903 316.801 72.2337 315.68C72.2162 315.674 72.1569 315.479 71.9517 315.389C71.5696 315.219 70.9882 315.18 70.5672 315.18C70.1151 315.016 68.9989 314.449 68.4942 314.505C68.3416 314.522 68.4174 314.832 68.3999 314.846C68.1354 315.034 64.1918 314.255 63.4752 314.182C50.4658 312.808 38.8011 315.942 28.3722 323.628C24.3838 326.566 20.2515 330.034 16.4196 333.209C16.2563 333.345 16.2009 333.648 16.1484 333.679C16.0998 333.71 15.881 333.54 15.6856 333.627C15.5329 333.693 13.2023 335.588 13.1021 335.727C12.8552 336.068 12.5703 338.384 12.5071 338.972C12.1454 342.422 11.8673 346.14 11.6729 349.568C11.6311 350.285 11.7011 351.022 11.6729 351.739C12.1425 352.048 11.9266 353.832 12.0064 353.909C12.0589 353.962 12.6568 353.871 12.8406 353.909L13.3413 359.752L14.0093 359.585V359.752L14.6773 366.096C23.8898 364.131 32.9906 361.637 42.1468 359.428L52.4785 361.744L49.8844 400.151L59.166 395L68.9036 390.803C68.8374 391.043 69.0494 391.46 68.7995 391.654C66.9317 392.472 64.9813 393.13 63.1135 393.939C62.8947 394.034 62.7314 394.242 62.5116 394.339C61.9759 394.575 61.2253 394.544 60.8947 395.139C57.0619 396.805 53.4148 398.805 49.8844 401.066C49.5431 401.428 49.4497 403.744 49.4011 404.423C49.3875 404.617 49.2971 404.958 49.6306 404.819C49.8707 404.722 50.6389 403.758 50.9733 403.487C53.8776 401.129 54.8334 401.543 58.2316 400.73C60.7421 400.132 63.1942 399.296 65.7329 398.803C65.729 398.483 65.7747 397.074 66.0178 396.967L81.3053 394.933C82.5498 393.834 84.5012 392.933 85.705 391.907C87.1449 390.679 88.5703 388.228 90.1007 387.121C90.1532 387.083 90.654 387.24 90.4342 386.704C90.302 386.384 89.8674 386.471 89.6 386.453C89.6107 386.345 89.5864 386.228 89.6 386.12C89.8781 383.932 91.7352 386.162 92.7678 385.535C93.0565 385.358 95.9569 380.569 96.4158 379.829C96.5374 379.634 96.5481 379.372 96.6074 379.275C96.8125 378.949 97.0041 378.757 97.2754 378.274C97.3172 378.197 97.6546 378.128 97.7411 377.825C97.9015 377.269 97.6439 376.414 97.7761 375.937C97.7829 375.913 98.0299 375.686 98.1096 375.604C99.4105 374.265 100.749 375.566 102.161 375.235C102.683 375.114 102.867 374.765 102.947 374.269C102.957 374.216 102.947 374.158 102.947 374.101L103.454 373.531C103.305 372.393 102.22 370.762 102.112 369.761C102.056 369.218 102.153 368.428 102.362 367.925C102.547 367.479 102.87 367.386 102.947 367.257C103.646 366.95 104.199 367.232 104.783 367.257C105.239 367.274 105.311 366.818 105.45 366.423C105.83 365.333 105.801 364.541 105.618 363.418C106.049 363.453 106.536 363.369 106.953 363.418C107.909 363.533 108.274 364.11 109.123 364.419C109.13 364.764 109.526 364.969 109.443 365.302C109.39 365.507 108.977 365.744 108.827 366.039C108.723 366.241 108.389 367.524 108.459 367.587C108.789 367.577 109.127 367.605 109.46 367.587C110.111 367.556 109.61 367.195 109.881 366.589C110.09 366.119 111.196 365.435 111.293 364.491C111.412 363.329 110.737 363.326 110.131 362.912C109.741 362.645 109.933 362.551 109.463 362.244C109.164 362.05 108.632 361.9 108.799 361.493C109.053 360.866 109.801 361.597 109.964 361.576C110.193 361.545 110.562 360.505 110.632 360.241L110.965 360.074C110.965 360.119 111.195 360.901 111.23 360.93C111.415 361.073 112.659 361.163 112.785 361.055C112.785 360.391 113.435 359.778 113.567 359.236C113.678 358.78 113.407 358.283 113.728 357.74C114.03 357.226 114.882 357.524 115.188 356.853C115.431 356.315 114.937 355.748 114.847 355.274C114.607 354.046 114.617 353.817 115.138 352.729C115.49 352.363 115.646 352.339 115.806 351.894C115.824 351.846 115.789 351.776 115.806 351.727C116.353 351.783 116.724 351.251 117.059 350.896C117.497 350.43 119.5 347.668 119.754 347.581C120.561 347.64 124.254 347.265 124.54 347.922C124.626 348.124 124.717 348.698 124.651 348.889C124.644 348.909 124.404 348.972 124.351 349.167C124.285 349.407 124.108 350.76 124.651 350.558V349.557C125.284 351 124.835 352.548 124.811 353.973C124.787 355.337 124.842 356.707 124.818 358.07V358.571C124.745 361.663 124.491 364.392 124.317 367.418C124.303 367.669 124.324 367.899 124.317 368.086C124.313 368.197 124.321 368.309 124.317 368.42C124.119 374.068 124.985 379.729 124.651 385.281C124.64 385.433 124.355 385.719 124.48 386.171C124.529 386.348 124.807 386.266 124.818 386.282C124.86 386.352 124.978 387.621 124.992 387.861C125.054 388.842 124.783 390.908 125.016 391.677C125.117 392.007 125.513 392.091 125.743 392.292C126.126 392.634 125.726 392.731 126.487 392.793C126.543 392.797 126.598 392.793 126.654 392.793C127.221 393.12 127.461 393.728 127.907 394.128C128.609 394.757 132.16 397.39 132.876 397.682C132.949 397.71 134.195 397.905 134.378 397.925C134.511 397.939 134.917 397.72 134.998 397.8C135.165 397.974 135.018 398.722 134.497 398.468C134.268 398.677 136.16 400.193 136.403 400.314C136.893 400.561 138.615 401.024 138.931 401.288C139.275 401.573 139.915 402.825 140.492 403.231C140.854 403.485 141.591 403.586 141.786 403.854C141.922 404.038 141.947 404.313 142.169 404.639C142.175 404.529 142.162 404.417 142.169 404.306C142.485 404.383 142.544 404.672 142.499 404.974C142.444 405.093 142.252 404.765 142.169 404.64C142.148 404.96 142.158 405.649 142.447 405.823L144.505 406.31C145.03 407.128 144.78 406.943 145.082 407.819C145.145 408 146.317 409.767 146.428 409.811C146.633 409.898 146.737 409.776 146.675 409.564C146.519 409.042 145.931 408.239 145.698 407.703C144.763 405.561 143.552 402.438 143.344 400.129C143.177 398.278 143.26 395.517 143.344 393.618V393.284C143.507 392.596 144.032 391.531 144.377 390.884C144.502 390.651 144.443 390.355 144.846 390.446C144.846 391.333 144.776 392.341 144.846 393.207C144.888 393.719 144.763 393.639 145.347 393.618C142.081 395.962 144.54 402.841 145.872 405.864C147.698 410.009 152.994 416.826 157.362 418.325L158.03 419.326C156.729 419.059 154.062 416.913 152.946 415.984C152.407 415.536 151.964 414.954 151.436 414.489L151.186 415.157L150.689 415.236C151.137 417.058 151.933 417.334 153.109 418.492C155.348 420.693 157.227 422.687 158.93 425.354C159.153 425.705 159.782 427.117 159.865 427.176C160.28 427.475 160.408 426.373 160.697 426.342C160.843 427.041 160.432 427.611 160.363 428.258C160.13 430.473 161.616 432.602 161.865 434.852H161.365C161.1 433.53 160.787 432.229 160.196 431.012L159.872 432.605C159.162 433.061 158.54 433.999 157.695 433.849L157.862 434.851C157.439 435.018 157.205 433.918 156.864 434.187C156.836 434.207 156.669 434.729 156.763 434.858C156.933 435.098 159.079 435.466 158.529 436.02C158.359 436.194 157.382 435.508 157.03 435.689C156.805 436.152 158.049 436.673 157.694 437.021C157.513 437.202 156.999 436.701 156.779 436.694C156.491 436.684 156.175 437.025 155.861 437.025C155.931 437.407 157.566 437.286 157.361 437.773C157.184 438.187 156.655 437.828 156.321 437.884C155.264 438.058 156.046 438.899 155.845 439.178C155.792 439.251 155.274 439.264 155.042 439.63C154.812 439.992 154.868 440.603 154.676 441.101C154.36 441.919 153.536 442.409 153.191 443.205C153.163 443.205 152.955 443.351 152.691 443.373C152.503 443.077 152.002 443.234 151.689 443.205C151.471 443.188 151.241 443.23 151.021 443.205L150.993 443.199C150.896 443.17 150.603 443.066 150.353 443.038C150.249 443.025 150.128 443.038 150.02 443.038C149.738 443.038 149.755 442.701 149.352 443.372C149.112 443.771 149.063 444.123 148.684 444.541C147.996 445.295 147.546 445.25 146.681 445.542C146.496 445.604 146.267 445.622 146.013 445.709C145.662 445.831 145.574 445.935 145.345 446.043C145.226 446.098 144.997 446.05 144.754 446.195C143.821 446.756 142.149 449.145 141.913 450.205C141.516 452.003 142.132 451.492 143.509 451.886C143.565 451.903 143.686 452.004 143.843 452.053C146.163 452.759 149.055 453.827 151.348 454.317C151.553 454.359 151.818 454.442 152.019 454.39C152.335 454.504 152.255 454.696 152.352 454.89C152.593 455.378 152.884 455.861 153.02 456.393C151.678 457.363 152.127 456.713 151.177 456.963C150.711 457.085 150.624 457.683 150.352 457.815C149.966 458.003 149.518 457.822 149.139 457.902C148.972 457.937 148.916 458.197 148.85 458.232C147.505 458.918 147.459 458.451 146.51 458.639C146.232 458.694 145.957 459.036 145.849 459.067C145.352 459.21 144.704 459.133 144.252 459.391C143.953 459.561 143.748 460.068 143.501 460.312C143.324 460.486 142.909 460.521 142.868 460.594C142.749 460.786 142.947 461.272 142.764 461.578C142.653 461.763 142.308 461.787 142.127 461.909C142.012 461.986 142.019 462.236 141.901 462.25C141.661 462.275 141.286 462.065 140.928 462.065C139.929 462.065 140.312 462.462 140.128 462.942C139.526 464.507 139.815 463.923 139.967 465.373C140.082 466.444 139.317 466.297 140.673 467.084C140.739 467.122 140.934 467.046 141.007 467.084C142.102 467.644 148.81 475.587 150.017 477.1C151.276 478.679 149.283 478.936 149.85 480.439C149.933 480.658 150.454 481.514 150.556 481.573C150.831 481.726 151.296 481.364 151.331 482.202C151.331 482.275 151.081 482.247 151.022 482.401C150.956 482.571 151.057 482.873 151.018 482.943C151.001 482.974 150.417 482.797 150.848 483.364C151.123 483.726 153.321 485.437 153.804 485.75C159.413 489.392 162.377 484.93 167.627 484.279C168.139 484.217 168.813 484.376 169.266 484.272C169.422 484.237 169.307 483.816 169.795 483.939C169.874 483.959 169.805 484.294 170.118 484.29C172.174 484.259 174.337 484.039 176.389 483.776C177.404 483.643 178.392 483.418 179.393 483.275C184.821 482.499 190.946 481.623 196.023 484.415C198.781 485.931 200.047 489.253 202.753 490.787H203.253C203.553 490.238 204.471 489.914 203.931 489.191C203.448 488.544 203.124 489.521 202.742 489.713C202.391 489.887 202.342 489.64 202.252 489.618C202.387 489.253 203.118 489.128 203.059 488.736C202.867 487.487 201.682 488.012 201.087 487.198C201.535 486.471 202.068 487.046 202.735 486.931C202.819 486.409 203.438 484.767 202.36 484.973C202.047 485.032 201.755 485.773 201.337 485.78C201.152 485.742 200.861 484.333 200.92 484.28C200.986 484.221 201.803 484.624 202.485 484.092C203.758 483.098 201.323 482.868 201.257 482.767C200.941 482.26 201.963 482.079 202.318 482.148C202.461 482.176 203.215 482.966 203.588 482.611C203.685 482.516 203.188 480.987 203.087 480.941C202.002 480.444 203.206 480.969 202.754 480.107C202.698 480.003 202.743 479.94 202.586 479.773C202.485 479.039 202.057 477.739 202.253 477.054C202.295 476.908 202.594 476.848 202.74 476.668C202.862 476.515 202.844 476.142 203.029 476.09C203.435 475.975 203.717 476.291 203.926 476.598C203.968 476.66 203.832 476.935 204.01 476.935C204.285 476.977 204.413 476.712 204.594 476.598C204.883 476.413 205.175 476.465 205.262 476.013C205.332 475.647 205.293 474.775 205.189 474.41C205.078 474.013 204.768 474.218 204.761 473.926C205.286 474.034 205.679 474.382 206.261 474.26C206.018 472.378 206.717 473.404 207.242 473.071C207.398 472.97 207.746 471.478 207.433 471.169C206.73 470.467 205.532 471.27 205.367 471.242C205.142 471.204 204.845 470.546 204.428 470.588C204.212 470.112 203.791 469.806 203.594 469.587C203.479 469.461 203.371 469.368 203.26 469.253C203.073 469.059 202.975 468.947 202.759 468.752C202.634 468.642 202.471 468.624 202.426 468.585C202.398 468.561 202.388 468.234 202.19 468.081C201.738 467.73 200.301 467.218 200.273 466.679C200.364 465.274 202.638 455.355 202.249 454.907C202.187 454.834 201.859 454.938 201.762 454.9C201.678 454.865 201.532 454.785 201.428 454.733C200.323 454.186 198.292 452.869 197.134 452.6C195.972 452.333 196.553 453.344 195.837 453.408C195.746 453.414 194.755 453.129 194.588 453.063C194.129 452.889 193.486 452.413 192.919 452.229C193.865 450.754 193.104 451.005 192.085 450.559C191.761 450.42 191.423 450.198 191.083 450.059C190.269 449.725 189.25 449.357 188.412 449.057C188.527 448.42 188.308 448.66 188.047 448.511C187.553 448.226 187.076 448.111 186.576 447.888C187.069 447.902 187.515 446.508 187.577 446.053C188.029 446.171 187.904 445.719 188.078 445.385C188.46 444.654 188.971 443.909 189.079 443.047C189.816 443.662 190.79 444.264 191.583 444.883C192.031 445.234 193.197 445.988 193.42 446.218C193.444 446.242 193.35 446.454 193.517 446.566C193.768 446.733 194.278 446.719 194.588 446.719H195.089C195.155 446.482 194.988 446.381 194.922 446.218C195.356 446.246 195.343 445.967 195.475 445.686C195.861 444.872 196.219 443.926 196.424 443.046C196.556 442.865 196.618 443.001 196.757 442.545C196.827 442.312 196.786 442.073 196.925 441.711C197.088 441.725 197.182 441.697 197.258 441.544C197.679 441.523 197.957 441.93 198.26 442.044V442.545C197.62 442.395 197.567 442.845 198.044 443.018C198.235 443.088 198.434 443.018 198.593 443.046C198.635 443.168 198.562 443.401 198.593 443.547C198.13 443.78 198.134 445.091 198.593 444.716C198.617 444.611 198.565 444.458 198.593 444.382L198.927 444.549C198.889 444.744 198.951 445.005 198.927 445.217C199.389 445.147 199.782 445.065 200.262 445.05C201.058 445.03 201.069 444.956 201.597 444.883C201.983 444.83 202.518 444.883 202.932 444.883C202.96 444.883 203.141 445.057 203.432 445.05C203.624 445.046 203.843 444.887 203.933 444.883C204.264 444.876 204.604 444.903 204.935 444.883C205.338 444.858 206.009 444.973 206.333 444.862C206.666 444.748 206.542 444.188 206.875 444.07C207.191 443.959 208.176 444.129 208.273 444.049C208.34 443.851 208.117 443.653 208.106 443.549C207.971 442.276 208.12 440.707 208.94 439.709C210.029 438.383 210.488 439.104 211.945 439.208C212.042 439.295 212.15 439.354 212.278 439.375C212.702 439.448 213.474 439.389 213.948 439.375C214.417 439.362 214.702 439.264 215.116 439.208C215.224 439.194 215.346 439.226 215.45 439.208C216.107 439.093 216.904 439.18 216.785 438.137C216.774 438.042 216.09 436.447 216.027 436.374C215.856 436.165 215.223 435.886 214.945 435.869C214.765 435.858 214.483 436.019 214.277 436.036C214.187 436.016 214.052 436.036 213.944 436.036H213.61C213.253 435.758 212.915 435.785 212.776 435.703C212.682 435.643 212.533 435.466 212.443 435.369L212.776 434.368C212.842 434.354 212.981 434.191 213.11 434.2C213.13 434.368 213.009 434.582 213.273 434.534C213.527 433.431 213.791 432.548 214.274 431.529H214.608C214.577 431.606 214.628 431.763 214.608 431.863C214.414 432.061 214.396 432.152 214.274 432.364C214.239 432.426 214.309 432.611 214.274 432.697C214.243 432.774 213.381 433.535 214.274 433.531C214.156 432.933 214.347 432.975 214.608 432.697C214.886 432.398 214.91 432.565 215.109 432.029C215.195 431.793 215.515 431.445 215.109 431.195C215.153 431.08 215.223 430.972 215.276 430.861C215.296 430.817 215.256 430.74 215.276 430.694C215.377 430.714 215.53 430.666 215.609 430.694C215.62 430.698 215.651 430.847 215.777 430.861C216.149 430.903 216.566 430.833 216.945 430.861C217.001 430.993 216.928 431.035 217.113 431.195C217.391 431.435 217.593 431.382 217.947 431.362C218.681 431.32 217.985 430.583 218.437 430.266C218.869 429.964 220.109 430.663 219.912 429.456C219.881 429.271 219.658 429.247 219.616 429.192C219.546 429.091 219.78 428.715 219.116 428.858V428.691C219.241 428.305 220.19 428.927 220.628 428.618C220.928 428.409 220.736 427.537 220.785 427.189C221.568 427.328 221.233 428.256 222.28 427.93C223.317 427.606 222.646 427.085 222.622 426.851C222.611 426.743 222.635 426.626 222.622 426.518C223.07 426.341 223.151 425.721 222.622 425.85V425.349C223.279 425.435 224.152 425.682 224.124 424.681C224.141 424.553 224.033 424.559 223.957 424.514C224.012 423.94 223.853 423.989 223.456 423.846C223.154 423.738 223.143 423.846 223.122 423.846C223.014 423.832 222.886 423.866 222.789 423.846C222.73 423.835 222.661 423.863 222.622 423.846C222.542 423.175 222.653 423.449 223.014 423.327C223.324 423.223 223.807 423.098 223.954 422.757C224.103 422.408 223.731 422.545 223.62 422.51C223.537 422.064 223.895 422.267 224.121 422.092C223.905 421.786 223.592 421.776 223.287 421.675L223.454 421.345C223.123 421.314 222.922 421.129 222.786 420.84C222.848 420.802 222.905 420.694 222.953 420.673C223.868 420.297 223.902 419.351 223.621 418.502C223.604 418.45 223.493 418.395 223.454 418.335C223.415 418.276 223.496 418.036 223.454 418.002C223.343 417.907 223.019 418.169 222.953 418.169C222.946 418.002 222.96 417.835 222.953 417.668C223.886 417.32 223.082 416.722 223.12 416.67C223.134 416.652 223.388 416.663 223.527 416.496C224.104 415.783 224.605 414.906 224.288 413.995C224.341 413.984 224.414 413.834 224.455 413.827C224.487 413.821 224.737 414.008 224.998 413.962C225.231 413.925 226.037 413.482 226.292 413.326C226.351 413.291 226.518 413.326 226.623 413.239C227.11 412.829 227.492 410.433 227.774 409.712L227.962 409.82C227.753 410.679 227.294 411.896 227.193 412.659C227.156 412.937 227.169 412.835 227.295 412.992C227.308 413.01 227.263 413.114 227.371 413.124C227.424 413.096 227.451 412.992 227.462 412.992C227.514 412.992 227.577 413.003 227.629 412.992C227.9 412.94 228.321 413.117 228.436 412.714C228.564 411.337 228.84 409.984 229.007 408.61C229.108 407.782 229.177 407.587 229.132 406.648C229.128 406.537 229.136 406.426 229.132 406.315C229.115 405.832 228.993 405.223 228.965 404.645C228.764 400.465 228.363 396.298 228.802 392.125L229.132 392.793C229.132 391.026 230.015 389.173 229.633 387.451C229.741 386.898 229.703 386.328 229.8 385.781C229.877 385.343 230.04 384.891 230.134 384.279L230.304 384.613H230.467C230.492 384.452 230.439 384.258 230.467 384.112C230.735 384.14 231.045 384.074 231.301 384.112C231.346 384.119 231.478 384.262 231.635 384.279C232.616 384.398 232.184 383.98 232.598 383.315C232.894 382.835 233.11 382.572 233.44 381.994C233.868 381.25 234.504 380.756 234.303 379.771L234.265 379.782L234.263 379.781ZM134.799 360.127L135.426 360.385L138.075 353.94L138.183 353.673L137.345 353.329L133.022 351.548L138.183 353.673L135.422 360.381L130.261 358.257L134.792 360.124L134.798 360.128L134.799 360.127ZM146.077 360.28L147.013 357.933L144.474 364.308L146.077 360.28ZM143.469 356.521L143.365 356.479L143.021 356.344L143.469 356.521ZM140.023 349.123L139.546 348.929L134.831 346.995L133.324 350.667L133.13 351.14L134.827 346.995L140.019 349.123H140.023Z" fill="#E8EBED"/>
<path d="M212.25 366.087L212.173 366.448L213.054 366.636L213.131 366.275L212.25 366.087Z" fill="#E8EBED"/>
<path d="M211.071 365.755C210.963 365.323 210.539 365.473 210.236 365.421C210.479 365.564 210.651 365.866 211.071 365.755Z" fill="#E8EBED"/>
<path d="M211.909 366.293C212.023 366.293 212.115 366.201 212.115 366.088C212.115 365.975 212.023 365.883 211.909 365.883C211.796 365.883 211.704 365.975 211.704 366.088C211.704 366.201 211.796 366.293 211.909 366.293Z" fill="#E8EBED"/>
<path d="M211.573 365.758C211.339 365.64 211.126 365.863 211.241 365.922C211.475 366.041 211.688 365.818 211.573 365.758Z" fill="#E8EBED"/>
<path d="M149.242 420.002C148.735 420.19 147.952 420.743 147.542 420.82C146.527 421.004 146.265 420.166 146.179 422.169C147.553 422.214 148.547 423.279 149.913 423.011C150.362 422.925 150.685 422.361 151.228 422.535C151.586 422.65 151.548 423.175 151.715 423.314C151.77 423.359 152.995 423.686 153.106 423.682C153.576 423.669 153.496 423.171 153.669 422.976C153.864 422.758 154.629 421.986 154.845 422.187C154.928 422.264 155.092 423.916 155.37 424.419C155.694 425.011 156.834 425.877 157.255 426.537C157.509 426.93 157.923 428.582 158.508 428.185C158.549 428.157 158.862 427.361 158.786 427.187C156.97 423.904 154.689 421.037 151.931 418.506C151.684 418.281 150.053 416.816 149.928 416.841C149.09 417.015 150.62 417.829 150.679 418.266C150.708 418.489 150.419 419.751 150.314 419.817C150.22 419.879 149.57 419.883 149.246 420.002H149.242Z" fill="#E8EBED"/>
<path d="M187.988 505.02C188.402 504.616 188.948 504.213 189.369 503.813C193.653 499.723 197.896 495.588 202.225 491.543L202.298 491.386C202.27 491.223 201.554 490.795 201.387 490.667C201.279 490.583 201.147 490.594 201.136 490.583C201.116 490.563 200.845 490.151 200.803 490.082C200.629 489.794 200.552 489.658 200.386 489.414C200.167 489.094 200.174 488.924 200.052 488.663C199.276 487.015 198.233 485.685 196.713 484.657C196.418 484.458 196.244 484.378 195.962 484.239C195.739 484.131 195.593 484.079 195.377 483.989C194.626 483.675 193.858 483.387 193.04 483.154C192.995 483.141 192.921 483.168 192.873 483.154C192.566 483.071 192.487 482.956 192.038 482.903C190.717 482.423 189.257 482.385 187.865 482.319C183.567 482.114 179.711 483.331 175.544 483.811C173.84 484.009 171.876 483.793 170.206 484.068C170.05 484.093 169.873 483.974 169.922 484.236C169.803 484.236 169.372 484.256 169.337 484.236C169.33 484.232 169.368 484.086 169.285 484.061C169.139 484.024 169.034 484.148 169.003 484.152C168.533 484.183 168.054 484.124 167.584 484.152C166.607 484.207 165.533 484.346 164.663 484.82C164.493 484.869 164.26 485.005 164.079 485.071C163.213 485.384 162.694 485.766 161.909 486.156C161.752 486.233 161.512 486.323 161.324 486.407C160.991 486.424 160.577 486.525 160.323 486.74C160.295 486.744 160.268 486.736 160.239 486.74C158.793 486.952 157.315 486.998 155.899 486.573L156.066 491.373C156.059 491.787 156.271 492.092 156.4 492.416C156.438 492.517 156.442 492.652 156.483 492.75C156.41 492.763 156.285 492.729 156.232 492.75C156.204 492.639 156.18 492.527 156.149 492.416C156.065 492.11 156.03 491.863 155.808 491.626L155.609 486.653C154.169 486.159 153.026 485.293 151.892 484.319C151.722 484.061 151.603 483.895 151.308 483.735C151.301 483.96 151.419 484.152 151.468 484.368C151.569 484.827 151.691 485.164 151.913 485.592C152.154 486.051 152.668 486.489 151.938 486.911C151.42 487.21 151.343 486.549 151.009 486.816C150.793 486.99 150.981 487.154 150.957 487.348C150.936 487.518 150.727 487.741 150.723 487.96C150.723 488.099 150.929 488.603 150.949 488.892C150.963 489.08 150.841 489.265 150.896 489.439C150.949 489.606 151.293 489.626 151.425 489.831C151.509 489.964 151.602 490.388 151.606 490.551C151.624 491.118 151.454 491.733 151.355 492.265C151.237 492.894 151.477 492.821 150.89 493.379C150.25 493.983 148.789 494.164 147.912 494.164C147.637 494.164 147.356 493.844 147.081 494.078C146.956 494.186 146.995 494.38 146.914 494.499C146.869 494.565 146.753 494.582 146.713 494.649C146.309 495.295 146.81 495.271 146.796 495.619C146.789 495.838 146.615 495.985 146.571 496.151C146.501 496.394 146.599 496.687 146.355 496.895C146.268 496.968 145.847 496.972 146.216 497.173C146.202 497.186 146.202 497.312 146.136 497.385C146.063 497.465 145.896 497.482 145.876 497.562C145.851 497.659 145.928 498.052 145.962 498.171C145.799 498.069 145.66 498.135 145.711 497.837H145.631C145.583 498.091 145.214 498.237 145.131 498.463C145.058 498.662 145.395 498.533 145.552 498.706C145.572 498.731 145.837 499.221 145.847 499.253C145.997 499.764 145.461 499.674 145.336 499.921C145.204 500.188 145.457 500.484 145.364 500.779C145.353 500.817 145.072 501.437 145.051 501.472C144.936 501.656 144.665 501.639 144.627 501.732C144.596 501.812 144.616 501.944 144.565 502.066C144.516 502.184 144.325 502.275 144.395 502.407C144.415 502.445 144.715 502.428 144.45 502.87C144.3 503.124 144.022 503.027 143.956 503.298C143.876 503.622 144.283 503.499 144.373 503.719C144.502 504.025 144.102 503.858 144.043 504.091C144.467 504.224 144.616 504.453 144.63 504.892C144.637 505.11 144.355 504.964 144.248 505.176C144.171 505.329 144.074 506.025 144.265 506.081C144.307 506.094 144.933 506.101 144.738 506.258C144.54 506.418 144.623 506.564 144.641 506.838L145.294 507.096C145.256 507.409 144.985 507.329 144.71 507.347C144.71 507.212 144.717 506.957 144.546 507.1C144.522 507.117 144.56 507.252 144.546 507.263C144.511 507.287 144.282 507.208 144.122 507.382C143.931 507.591 144.018 507.924 143.948 508.126C143.904 508.254 143.715 508.236 143.708 508.31C143.664 508.846 144.15 508.516 144.191 508.905C144.24 509.347 143.792 509.351 144.046 509.681V509.765C144.015 509.82 143.993 509.88 143.962 509.932C143.945 509.731 143.656 509.564 143.545 509.681C143.492 509.737 143.622 510.023 143.604 510.127C143.587 510.228 143.225 510.69 143.128 510.93C143.117 510.954 143.135 510.989 143.128 511.014C142.843 510.937 142.665 511.149 142.422 511.184C142.182 511.219 141.35 511.089 141.288 511.131C141.072 511.288 141.326 511.99 141.793 511.931C141.848 512.084 142.071 512.182 142.113 512.324C142.168 512.509 141.789 513.615 141.692 513.875C141.253 515.037 140.652 516.205 140.895 517.544C140.948 517.833 141.299 518.208 141.299 518.393C141.299 518.466 141.087 518.452 141.052 518.574C141.041 518.605 141.038 519.189 141.052 519.22C141.094 519.353 141.288 519.346 141.299 519.355C141.327 519.39 141.076 519.609 141.066 519.741C141.055 519.87 141.184 519.967 141.194 520.072C141.205 520.2 141.103 520.347 141.128 520.465C141.145 520.562 141.388 520.531 141.392 520.729C141.392 520.931 141.037 520.928 141.173 521.442C141.414 522.346 141.914 521.755 142.137 521.894C142.314 522.005 142.676 522.677 142.843 522.865C143.278 523.359 144.147 524.03 144.787 524.175C145.012 524.228 145.243 524.162 145.482 524.231C145.819 524.332 146.358 524.933 146.73 525.027V525.195C146.386 525.239 146.216 525.713 146.229 526.029C145.625 526.172 145.802 527.34 145.934 527.785C146.004 528.018 146.441 528.623 146.456 528.751C146.463 528.814 146.397 529.916 146.383 529.976C146.345 530.132 145.92 530.543 145.9 530.598C145.736 531.039 145.931 531.443 145.9 531.732C145.893 531.791 145.75 531.78 145.701 531.888C145.625 532.073 145.642 532.246 145.514 532.451C145.392 532.65 144.923 533.005 144.853 533.126C144.769 533.265 144.752 533.682 144.641 533.874C145.83 534.037 147.232 534.149 148.313 534.708V534.792L148.229 534.875C147.266 534.587 144.912 533.748 144.004 534.11C143.795 534.194 143.907 534.287 143.889 534.458C143.847 534.465 143.739 534.577 143.638 534.542L143.799 534.661C143.437 535.433 143.872 536.176 143.889 536.963C143.729 536.994 142.71 537.951 142.592 538.128C142.453 538.333 142.477 538.518 142.38 538.671C142.318 538.768 142.161 538.789 142.147 538.814C142.116 538.866 142.449 539.704 142.22 539.968C142.195 539.95 142.056 539.978 141.977 539.923C141.187 539.363 140.468 538.703 139.713 538.094C138.889 537.829 139.066 538.63 138.959 539.089C138.889 539.384 138.61 540.059 138.621 540.344C138.649 540.935 139.351 541.078 139.265 541.391C139.234 541.51 138.844 541.934 138.736 541.962C138.535 542.015 138.312 541.809 138.127 541.927C137.981 542.021 137.734 542.685 137.794 542.891C137.526 542.714 137.467 542.995 137.269 543.075C136.664 543.322 135.405 543.611 135.374 544.394C135.676 544.383 135.989 544.411 136.292 544.394V544.478H135.206C135.127 544.627 135.29 544.846 135.29 544.895C135.29 544.972 135.301 545.072 135.29 545.146C135.262 545.337 135.089 545.681 135.047 545.949C134.985 546.363 135.078 546.902 135.047 547.187C135.027 547.357 134.838 547.409 134.793 547.733C134.296 547.733 134.557 547.813 134.376 547.9C134.226 547.97 133.83 547.991 133.708 548.216C133.573 548.47 133.583 549.169 133.538 549.485C133.082 550.143 132.811 550.393 132.14 550.817C131.855 550.998 131.454 551.002 131.535 551.488C131.511 551.495 131.476 551.565 131.451 551.572C131.013 551.704 131.326 551.669 131.149 551.83C131.059 551.913 130.704 551.979 130.589 552.07C130.502 552.136 130.54 552.233 130.534 552.24C130.502 552.268 130.478 552.292 130.45 552.324C130.443 552.33 130.342 552.295 130.28 552.379C130.176 552.514 130.064 552.734 130.033 552.908C129.953 552.915 129.727 552.95 129.699 553.033C129.64 553.218 129.852 553.141 129.867 553.159C129.88 553.176 129.79 553.475 129.783 553.576C129.779 553.631 129.783 553.687 129.783 553.743C129.456 553.66 129.401 554.122 129.199 554.328C128.983 554.356 128.976 554.442 128.865 554.495C128.792 554.53 128.569 554.543 128.541 554.589C128.447 554.739 128.611 554.975 128.614 555.079C128.614 555.093 128.464 555.267 128.531 555.33C128.559 555.358 128.788 555.306 128.864 555.33C129.674 555.595 129.517 556.391 130.199 555.163C130.213 555.135 130.261 555.11 130.283 555.079H130.534C130.704 555.079 130.867 555.166 131.034 555.163C131.202 555.229 131.553 555.476 131.619 555.622C131.729 555.869 131.215 555.549 131.368 555.785C131.472 555.946 131.917 555.942 131.869 556.411C131.545 556.425 131.643 556.742 131.952 556.662C132.303 557.417 132.651 558.178 133.037 558.916C133.051 558.944 133.02 559.042 133.051 559.115C133.11 559.243 133.45 559.368 133.454 559.629C133.454 559.841 132.901 560.092 133.121 560.213C133.242 560.279 133.862 560.29 133.963 560.213C134.091 560.123 134.036 559.817 134.04 559.664L134.207 559.831V559.915C134.207 559.97 134.2 560.026 134.207 560.082C134.322 560.166 135.188 559.957 135.376 560.166C135.309 560.277 135.327 560.594 135.278 560.653C135.195 560.75 134.124 560.841 134.05 561.053L133.289 571.434C133.251 571.437 133.212 571.475 133.205 571.517L133.873 561.216C133.849 561.046 133.168 561.306 133.039 561.334C132.688 561.411 131.259 561.692 131.057 561.857C130.681 562.159 130.834 563.004 130.869 563.422H130.452C130.57 563.801 131.085 565.7 130.866 565.923C130.838 565.954 130.396 565.923 130.361 566.066L130.619 568.47C130.602 568.688 130.313 568.783 130.244 568.935C130.063 569.328 130.602 570.706 130.592 571.245C130.588 571.43 130.251 571.975 130.62 571.937C130.565 571.948 130.296 572.045 130.283 572.076C130.22 572.211 130.109 572.824 130.369 572.689C130.171 573.196 130.261 573.569 130.182 574.045C130.137 574.323 129.879 574.647 129.872 574.908C129.862 575.224 130.293 575.711 130.269 576.128C130.252 576.459 129.831 577.975 129.685 578.301C129.59 578.513 129.327 578.757 129.309 578.914C129.274 579.213 129.574 579.953 129.609 580.333C129.671 581.021 129.278 583.032 128.868 583.577C128.566 583.977 127.943 584.197 127.787 584.749C127.714 585 128.1 584.794 128.201 584.829C128.051 585.023 127.864 585.25 127.749 585.462C127.683 585.58 127.721 585.757 127.704 585.789C127.221 586.644 126.41 587.392 125.966 588.265C125.896 588.4 125.805 588.853 125.778 588.874C125.67 588.951 125.26 588.742 125.2 588.797C125.163 588.832 125.148 589.315 125.117 589.381C124.891 589.872 124.133 590.634 124.049 591.283C124.018 591.537 124.129 591.701 124.115 591.92C124.08 592.432 123.809 592.835 123.767 593.433C123.729 594 123.767 594.661 123.534 595.145L126.873 596.23C126.873 596.23 126.734 596.365 126.626 596.282L123.472 595.243C123.27 595.208 123.037 595.479 122.95 595.646C122.654 596.227 123.13 596.505 123.12 596.937C123.113 597.173 122.974 597.434 122.95 597.691C122.915 598.064 123.022 598.457 123.005 598.763C122.991 598.996 122.65 600.018 122.782 600.154L126.038 600.238C125.746 599.355 126.434 598.958 127.206 598.819H127.237C127.31 598.837 127.446 598.914 127.669 598.736C128.32 598.211 127.878 597.181 127.958 596.482C127.996 596.495 128.073 596.471 128.125 596.482C128.132 596.962 128.132 597.424 128.209 597.9C128.383 597.852 128.393 597.601 128.546 597.525C128.643 597.476 128.814 597.508 128.862 597.47C128.939 597.407 128.897 596.882 129.095 596.823L131.325 597.501L131.457 597.619C131.419 597.842 131.6 599.32 131.76 599.32C132.125 599.32 131.76 598.092 131.739 597.838C131.492 594.461 132.612 593.216 133.7 590.329C134.069 589.352 134.444 588.124 134.744 587.116C135.154 585.731 135.592 584.229 135.725 582.797C136.386 582.936 137.273 582.867 137.915 583.134C138.012 583.176 137.95 583.322 138.016 583.297C138.208 583.221 138.107 582.911 138.142 582.797C138.153 582.762 138.201 582.706 138.225 582.629C138.274 582.466 138.336 582.292 138.393 582.129C138.445 581.979 138.503 581.853 138.56 581.711C138.754 581.74 138.887 581.363 138.953 581.228C139.127 580.87 139.213 580.595 139.311 580.209C139.405 579.827 139.359 579.524 139.394 579.291V579.208C139.575 579.155 139.547 578.989 139.579 578.85C139.7 578.303 139.804 577.758 139.895 577.204C139.915 577.076 139.808 576.905 139.811 576.871C139.873 576.242 140.1 575.66 140.145 574.868C140.385 574.068 140.28 573.223 140.312 572.399C140.319 572.249 140.235 572.072 140.479 572.114C140.441 573.067 140.507 574.152 140.396 575.161C140.246 576.496 139.926 577.905 139.728 579.209C139.651 579.713 139.519 580.203 139.477 580.711C139.967 580.655 139.693 579.306 140.096 579.295C140.176 579.295 140.361 579.357 140.478 579.375C140.604 579.395 140.687 579.452 140.729 579.458C140.437 579.545 140.677 579.792 140.645 579.959C140.628 580.043 140.322 580.335 140.434 580.544C140.447 580.572 140.778 580.846 140.872 580.94C141.004 581.069 140.949 581.09 141.147 580.961C141.015 581.59 140.744 582.421 140.73 583.047L139.228 582.797C139.252 582.946 139.398 582.94 139.506 582.974C139.874 583.092 140.34 583.13 140.726 583.214C141.042 583.28 141.874 583.36 142.093 583.461C142.225 583.52 142.058 583.739 142.228 583.715C142.249 582.692 142.848 581.829 143.243 580.933C143.372 580.644 143.428 580.328 143.535 580.059C143.58 579.949 143.73 579.965 143.73 579.91C143.73 579.208 143.824 578.745 143.893 578.039H145.729C145.691 578.734 145.534 579.423 145.561 580.125L145.228 580.042C145.141 580.317 145.454 580.139 145.482 580.254C145.548 580.514 145.374 580.859 145.395 581.127L145.711 580.734L145.896 578.372C146.317 578.452 146.72 578.456 147.148 578.456L150.532 579.868C151.119 579.948 151.645 579.656 152.201 579.541C152.351 579.51 152.539 579.645 152.49 579.374C153.203 579.694 154.647 580.369 155.377 580.365C155.454 580.365 155.478 580.299 155.495 580.292C155.582 580.267 155.881 580.087 155.913 580.041C156.191 580.114 156.542 579.878 156.779 579.898C157.255 579.943 158.594 580.621 159.248 580.754C159.415 580.789 159.578 580.813 159.748 580.789L162.144 575.777C162.526 575.854 163.82 575.843 163.761 576.406L162.005 578.872C162.19 578.896 162.283 578.868 162.429 578.753C162.474 578.718 163.069 577.961 163.148 577.845C163.193 577.783 163.162 577.717 163.173 577.702C163.354 577.901 162.822 578.481 163.256 578.454C163.281 578.13 163.392 577.752 163.507 577.452C163.653 577.077 163.82 576.945 163.946 576.674C164.036 576.486 164.032 576.058 164.168 575.818C164.193 575.773 164.484 575.443 164.554 575.362C164.669 575.23 164.7 575.382 164.839 575.362C164.978 575.518 163.915 576.29 164.588 576.363C164.626 576.061 165.183 575.605 165.256 575.404C165.336 575.188 164.965 575.331 165.006 575.236C165.294 575.076 165.207 574.788 165.332 574.562C165.708 573.876 166.577 573.243 166.675 572.44C166.995 572.7 167.096 572.082 167.259 571.856C167.52 571.49 167.635 571.264 167.844 570.938C167.676 570.969 167.308 571.602 167.176 571.772C167.11 571.858 167.061 571.957 166.967 572.023C166.901 572.033 166.918 571.95 166.925 571.897C166.936 571.73 167.185 570.614 167.241 570.461C167.307 570.284 169.147 567.689 169.348 567.477C169.549 567.268 170.029 566.917 170.102 567.393C170.14 567.64 169.494 568.589 169.317 568.861C168.854 569.567 168.305 570.217 167.846 570.937C168.075 570.895 168.145 571.111 168.346 571.104C168.448 570.27 169.181 569.615 169.633 568.927C169.991 568.38 170.418 567.473 170.815 567.021C170.95 566.864 171.243 566.743 171.312 566.593C171.371 566.465 171.284 566.332 171.329 566.203C171.486 565.789 171.788 565.184 172 564.781C172.056 564.673 172.168 564.617 172.185 564.593C172.174 564.635 172.161 564.767 172.227 564.76C172.317 564.76 172.24 564.628 172.269 564.593C172.321 564.52 172.414 564.516 172.478 564.346C172.606 563.998 172.634 563.57 172.766 563.212C172.978 562.641 173.289 562.096 173.501 561.525C175.222 556.91 176.248 552.073 177.535 547.322C177.788 547.301 178.046 547.301 178.3 547.335C179.33 547.474 180.06 547.933 181.2 547.982C181.482 548.26 182.042 548.34 182.285 547.982C181.952 547.975 181.617 547.989 181.284 547.982L181.535 546.647C181.931 546.466 182.254 546.181 182.787 545.979C183.326 545.774 183.023 545.868 183.288 545.645C183.513 545.458 183.795 545.416 183.956 545.312C184.13 545.305 184.519 545.826 184.624 545.729C184.811 545.552 184.061 545.371 184.123 545.145C184.2 545.037 184.266 544.686 184.374 544.602C184.468 544.529 184.513 544.745 184.625 544.692C184.834 544.602 185.028 544.018 185.293 543.892C185.401 543.923 185.491 543.722 185.793 543.976C185.863 544.035 185.978 544.219 186.044 544.309C186.141 544.438 186.336 544.863 186.426 544.887C186.704 544.973 186.656 544.702 186.711 544.644C186.777 544.567 186.798 544.804 186.878 544.393C186.927 544.142 187.247 544.066 187.463 544.142C187.567 544.177 187.862 544.605 188.173 544.4C188.503 544.184 189.595 542.32 189.755 541.885C190.123 540.897 190.046 539.938 189.463 539.047C189.543 538.932 189.626 538.821 189.714 538.713C189.738 538.682 189.857 538.669 189.87 538.578C189.93 538.227 189.39 538.349 190.131 537.712C190.353 537.52 190.433 537.513 190.632 537.378C191.212 536.979 191.818 536.78 191.967 536.043C191.98 535.981 192.081 535.897 192.05 535.792C191.907 535.803 191.772 535.792 191.633 535.751C191.414 535.681 189.862 535.073 189.793 535.003C189.692 534.899 189.71 534.752 189.714 534.624C189.453 534.554 189.585 534.867 189.345 534.874C189.105 534.882 188.479 534.509 188.211 534.412C188.121 534.38 187.731 534.332 187.627 534.29C187.45 534.22 187.245 534.12 187.043 534.039C186.024 533.636 185.001 533.069 183.955 532.704C184.24 532.576 184.608 532.607 184.918 532.618C185.287 532.631 185.593 532.92 185.624 532.371C185.357 532.336 184.987 532.179 184.769 532.033C184.091 531.592 182.282 528.447 182.06 527.63C181.736 526.43 182.254 523.986 182.369 522.647C182.693 518.904 182.863 515.117 183.454 511.42L183.287 511.504C183.353 510.992 183.179 510.217 183.322 509.748C183.335 509.699 183.924 508.962 183.968 508.934C184.069 508.878 184.25 508.94 184.284 508.916C184.298 508.905 184.211 508.781 184.222 508.722C184.246 508.607 185.613 507.198 185.825 506.997C186.17 506.666 186.604 506.381 186.914 505.998L187.04 506.249C187.12 505.737 187.635 505.351 188 504.997V505.021L187.996 505.025L187.988 505.02ZM164.096 511.74L164.712 510.203L164.65 510.359L164.096 511.74Z" fill="#E8EBED"/>
</g>
<defs>
<clipPath id="clip0_1_2629">
<rect width="439.695" height="600" fill="white"/>
</clipPath>
</defs>
</svg>
