<svg width="30" height="30" viewBox="0 0 30 30" fill="none" xmlns="http://www.w3.org/2000/svg">
<g clip-path="url(#clip0_1_1076)">
<path d="M12.699 12.0806L18.5797 15.4262L12.699 18.7717V12.0806Z" fill="#CDD0D2"/>
<path fill-rule="evenodd" clip-rule="evenodd" d="M30 15C30 23.2843 23.2843 30 15 30C6.71573 30 0 23.2843 0 15C0 6.71573 6.71573 0 15 0C23.2843 0 30 6.71573 30 15ZM25.7795 9.975C25.6523 9.49633 25.4016 9.05946 25.0525 8.70811C24.7034 8.35677 24.2682 8.10328 23.7903 7.97301C22.0312 7.5 15 7.5 15 7.5C15 7.5 7.96875 7.5 6.20966 7.97301C5.73181 8.10328 5.29656 8.35677 4.94746 8.70811C4.59836 9.05946 4.34766 9.49633 4.22045 9.975C3.75 11.7418 3.75 15.4261 3.75 15.4261C3.75 15.4261 3.75 19.1105 4.22045 20.8773C4.34766 21.3559 4.59836 21.7928 4.94746 22.1442C5.29656 22.4955 5.73181 22.749 6.20966 22.8793C7.96875 23.3523 15 23.3523 15 23.3523C15 23.3523 22.0312 23.3523 23.7903 22.8793C24.2682 22.749 24.7034 22.4955 25.0525 22.1442C25.4016 21.7928 25.6523 21.3559 25.7795 20.8773C26.25 19.1105 26.25 15.4261 26.25 15.4261C26.25 15.4261 26.25 11.7418 25.7795 9.975Z" fill="#CDD0D2"/>
</g>
<defs>
<clipPath id="clip0_1_1076">
<rect width="30" height="30" fill="white"/>
</clipPath>
</defs>
</svg>
